<svg width="262" height="224" viewBox="0 0 262 224" fill="none" xmlns="http://www.w3.org/2000/svg">
<rect x="0.5" y="0.5" width="261" height="223" rx="39.5" fill="#F6FCFF"/>
<rect x="0.5" y="0.5" width="261" height="223" rx="39.5" stroke="#E2E8F7"/>
<path d="M123.5 120C146.972 120 166 100.972 166 77.5C166 54.0279 146.972 35 123.5 35C100.028 35 81 54.0279 81 77.5C81 100.972 100.028 120 123.5 120Z" fill="#FBBDAA"/>
<path d="M175.1 48L154.6 45C154.3 45 154 44.7 153.9 44.5L144.7 25.8C144 24.4 142.9 23.3 141.6 22.7C138.1 21 134 22.4 132.3 25.8L123.1 44.4C123 44.7 122.7 44.9 122.4 44.9L101.9 47.9C100.4 48.1 99 48.8 97.9 49.9C95.2 52.6 95.3 57 98 59.6L112.8 74.1C113 74.3 113.1 74.7 113.1 75C112.7 77.4 114.5 79.5 116.9 79.5H117.5C119.4 79.5 121 78.1 121.3 76.3L121.7 74.1C122 72.2 121.4 70.2 120 68.9L107.4 56.5C107.3 56.4 107.2 56.2 107.1 56C107 55.5 107.4 55.1 107.8 55L125.4 52.4C127.3 52.1 129 50.9 129.8 49.2L137.6 33.3C137.7 33.1 137.8 33 138 32.9C138.4 32.7 138.9 32.9 139.1 33.3L147 49.2C147.9 50.9 149.5 52.1 151.4 52.4L169 55C169.2 55 169.4 55.1 169.5 55.2C169.8 55.5 169.8 56.1 169.5 56.4L156.9 68.9C155.5 70.3 154.9 72.2 155.2 74.1L158.2 91.6C158.3 91.9 158.1 92.2 157.9 92.4C157.6 92.6 157.3 92.6 157 92.5L141.3 84.2C140.5 83.8 139.5 83.5 138.6 83.5C137.6 83.5 136.7 83.7 135.9 84.2L120.2 92.5C120 92.6 119.8 92.6 119.7 92.6C119.2 92.5 118.9 92.1 119 91.6V91.3C119.4 88.8 117.5 86.4 114.9 86.4C112.9 86.4 111.1 87.9 110.8 89.9L109.9 95.2C109.7 96.4 109.7 97.7 110.2 98.9C111.7 102.9 116.2 104.5 119.9 102.6L138 93.1C138.3 92.9 138.6 92.9 138.9 93.1L157.2 102.7C158.2 103.2 159.3 103.5 160.4 103.5C160.8 103.5 161.2 103.5 161.5 103.4C165.3 102.8 167.8 99.2 167.1 95.4L163.8 75C163.7 74.7 163.9 74.3 164.1 74.1L178.9 59.6C180 58.5 180.7 57.2 180.9 55.7C181.5 52 178.9 48.5 175.1 48Z" fill="#1C303A"/>
<path d="M135.1 64.8C137 64.5 138.7 63.3 139.5 61.6L143 54.4C143.8 52.8 143.5 50.9 142.2 49.7C140.2 47.7 136.9 48.3 135.6 50.8L132.7 56.7C132.6 57 132.3 57.2 132 57.2L126.7 58C123.5 58.5 122.2 62.4 124.5 64.6L124.6 64.7C125.5 65.6 126.7 66 127.9 65.8L135.1 64.8Z" fill="#1C303A" fill-opacity="0.5"/>
<path d="M39.5317 164.4V177H38.2177V165.552H30.2437V177H28.9297V164.4H39.5317ZM47.8332 167.46C48.7572 167.46 49.5792 167.664 50.2992 168.072C51.0192 168.48 51.5772 169.05 51.9732 169.782C52.3812 170.514 52.5852 171.348 52.5852 172.284C52.5852 173.22 52.3872 174.054 51.9912 174.786C51.5952 175.506 51.0432 176.07 50.3352 176.478C49.6392 176.886 48.8412 177.09 47.9412 177.09C47.1492 177.09 46.4412 176.934 45.8172 176.622C45.2052 176.298 44.7072 175.836 44.3232 175.236V180.492H43.0452V172.302C43.0452 171.354 43.2432 170.514 43.6392 169.782C44.0472 169.05 44.6112 168.48 45.3312 168.072C46.0632 167.664 46.8972 167.46 47.8332 167.46ZM47.7972 175.974C48.4692 175.974 49.0752 175.818 49.6152 175.506C50.1552 175.194 50.5752 174.756 50.8752 174.192C51.1752 173.628 51.3252 172.992 51.3252 172.284C51.3252 171.576 51.1752 170.94 50.8752 170.376C50.5752 169.812 50.1552 169.374 49.6152 169.062C49.0752 168.738 48.4692 168.576 47.7972 168.576C47.1252 168.576 46.5192 168.732 45.9792 169.044C45.4512 169.356 45.0372 169.794 44.7372 170.358C44.4492 170.91 44.3052 171.546 44.3052 172.266C44.3052 172.986 44.4492 173.628 44.7372 174.192C45.0372 174.756 45.4512 175.194 45.9792 175.506C46.5192 175.818 47.1252 175.974 47.7972 175.974ZM59.3564 175.956C59.9444 175.956 60.4844 175.854 60.9764 175.65C61.4804 175.434 61.9064 175.122 62.2544 174.714L62.9744 175.542C62.5544 176.046 62.0324 176.43 61.4084 176.694C60.7844 176.958 60.0944 177.09 59.3384 177.09C58.3664 177.09 57.5024 176.886 56.7464 176.478C55.9904 176.058 55.4024 175.482 54.9824 174.75C54.5624 174.018 54.3524 173.19 54.3524 172.266C54.3524 171.342 54.5504 170.514 54.9464 169.782C55.3544 169.05 55.9124 168.48 56.6204 168.072C57.3284 167.664 58.1324 167.46 59.0324 167.46C59.8724 167.46 60.6284 167.652 61.3004 168.036C61.9844 168.42 62.5244 168.954 62.9204 169.638C63.3284 170.322 63.5444 171.102 63.5684 171.978L55.7924 173.49C56.0324 174.258 56.4644 174.864 57.0884 175.308C57.7244 175.74 58.4804 175.956 59.3564 175.956ZM59.0324 168.558C58.3724 168.558 57.7784 168.714 57.2504 169.026C56.7344 169.326 56.3264 169.752 56.0264 170.304C55.7384 170.844 55.5944 171.468 55.5944 172.176C55.5944 172.356 55.6004 172.488 55.6124 172.572L62.2904 171.276C62.1464 170.484 61.7804 169.836 61.1924 169.332C60.6044 168.816 59.8844 168.558 59.0324 168.558ZM76.7897 167.532V177H75.6197V169.512L71.7857 175.848H71.2097L67.3757 169.494V177H66.2057V167.532H67.5017L71.5157 174.354L75.6017 167.532H76.7897ZM88.7604 167.532V177H87.5364V175.272C87.2004 175.848 86.7384 176.298 86.1504 176.622C85.5624 176.934 84.8904 177.09 84.1344 177.09C82.8864 177.09 81.9024 176.748 81.1824 176.064C80.4744 175.368 80.1204 174.354 80.1204 173.022V167.532H81.3984V172.896C81.3984 173.892 81.6444 174.648 82.1364 175.164C82.6284 175.68 83.3364 175.938 84.2604 175.938C85.2564 175.938 86.0424 175.638 86.6184 175.038C87.1944 174.426 87.4824 173.58 87.4824 172.5V167.532H88.7604ZM100.731 167.532V177H99.5071V175.272C99.1711 175.848 98.7091 176.298 98.1211 176.622C97.5331 176.934 96.8611 177.09 96.1051 177.09C94.8571 177.09 93.8731 176.748 93.1531 176.064C92.4451 175.368 92.0911 174.354 92.0911 173.022V167.532H93.3691V172.896C93.3691 173.892 93.6151 174.648 94.1071 175.164C94.5991 175.68 95.3071 175.938 96.2311 175.938C97.2271 175.938 98.0131 175.638 98.5891 175.038C99.1651 174.426 99.4531 173.58 99.4531 172.5V167.532H100.731ZM117.413 167.532V177H116.189V175.272C115.853 175.848 115.391 176.298 114.803 176.622C114.215 176.934 113.543 177.09 112.787 177.09C111.539 177.09 110.555 176.748 109.835 176.064C109.127 175.368 108.773 174.354 108.773 173.022V167.532H110.051V172.896C110.051 173.892 110.297 174.648 110.789 175.164C111.281 175.68 111.989 175.938 112.913 175.938C113.909 175.938 114.695 175.638 115.271 175.038C115.847 174.426 116.135 173.58 116.135 172.5V167.532H117.413ZM130.35 167.766C131.226 167.766 132.006 167.964 132.69 168.36C133.386 168.744 133.926 169.29 134.31 169.998C134.694 170.694 134.886 171.492 134.886 172.392C134.886 173.316 134.682 174.138 134.274 174.858C133.878 175.566 133.32 176.118 132.6 176.514C131.88 176.91 131.052 177.108 130.116 177.108C128.544 177.108 127.326 176.556 126.462 175.452C125.598 174.348 125.166 172.824 125.166 170.88C125.166 168.852 125.55 167.298 126.318 166.218C127.098 165.138 128.31 164.406 129.954 164.022L134.202 163.05L134.418 164.22L130.422 165.138C129.066 165.438 128.07 165.972 127.434 166.74C126.798 167.496 126.45 168.618 126.39 170.106C126.774 169.374 127.308 168.804 127.992 168.396C128.676 167.976 129.462 167.766 130.35 167.766ZM130.152 176.046C130.812 176.046 131.4 175.896 131.916 175.596C132.444 175.284 132.852 174.852 133.14 174.3C133.44 173.748 133.59 173.124 133.59 172.428C133.59 171.732 133.446 171.12 133.158 170.592C132.87 170.064 132.462 169.656 131.934 169.368C131.418 169.068 130.824 168.918 130.152 168.918C129.48 168.918 128.88 169.068 128.352 169.368C127.836 169.656 127.428 170.064 127.128 170.592C126.84 171.12 126.696 171.732 126.696 172.428C126.696 173.124 126.84 173.748 127.128 174.3C127.428 174.852 127.842 175.284 128.37 175.596C128.898 175.896 129.492 176.046 130.152 176.046ZM141.532 177.09C140.62 177.09 139.798 176.886 139.066 176.478C138.334 176.058 137.758 175.482 137.338 174.75C136.918 174.018 136.708 173.19 136.708 172.266C136.708 171.342 136.918 170.514 137.338 169.782C137.758 169.05 138.334 168.48 139.066 168.072C139.798 167.664 140.62 167.46 141.532 167.46C142.444 167.46 143.266 167.664 143.998 168.072C144.73 168.48 145.3 169.05 145.708 169.782C146.128 170.514 146.338 171.342 146.338 172.266C146.338 173.19 146.128 174.018 145.708 174.75C145.3 175.482 144.73 176.058 143.998 176.478C143.266 176.886 142.444 177.09 141.532 177.09ZM141.532 175.956C142.204 175.956 142.804 175.806 143.332 175.506C143.872 175.194 144.292 174.756 144.592 174.192C144.892 173.628 145.042 172.986 145.042 172.266C145.042 171.546 144.892 170.904 144.592 170.34C144.292 169.776 143.872 169.344 143.332 169.044C142.804 168.732 142.204 168.576 141.532 168.576C140.86 168.576 140.254 168.732 139.714 169.044C139.186 169.344 138.766 169.776 138.454 170.34C138.154 170.904 138.004 171.546 138.004 172.266C138.004 172.986 138.154 173.628 138.454 174.192C138.766 174.756 139.186 175.194 139.714 175.506C140.254 175.806 140.86 175.956 141.532 175.956ZM149.069 167.532H150.347V171.726H156.305V167.532H157.583V177H156.305V172.824H150.347V177H149.069V167.532ZM169.711 167.532V175.848C169.711 177.456 169.345 178.644 168.613 179.412C167.881 180.192 166.777 180.582 165.301 180.582C164.473 180.582 163.687 180.45 162.943 180.186C162.211 179.934 161.617 179.58 161.161 179.124L161.809 178.152C162.217 178.56 162.721 178.878 163.321 179.106C163.921 179.334 164.563 179.448 165.247 179.448C166.339 179.448 167.143 179.166 167.659 178.602C168.175 178.05 168.433 177.186 168.433 176.01V174.912C168.097 175.464 167.635 175.89 167.047 176.19C166.471 176.49 165.817 176.64 165.085 176.64C163.849 176.64 162.871 176.298 162.151 175.614C161.443 174.918 161.089 173.904 161.089 172.572V167.532H162.367V172.446C162.367 173.442 162.613 174.198 163.105 174.714C163.597 175.23 164.299 175.488 165.211 175.488C166.207 175.488 166.993 175.188 167.569 174.588C168.145 173.976 168.433 173.13 168.433 172.05V167.532H169.711ZM177.287 177.09C176.351 177.09 175.511 176.886 174.767 176.478C174.035 176.07 173.459 175.5 173.039 174.768C172.619 174.024 172.409 173.19 172.409 172.266C172.409 171.342 172.619 170.514 173.039 169.782C173.459 169.05 174.035 168.48 174.767 168.072C175.511 167.664 176.351 167.46 177.287 167.46C178.103 167.46 178.829 167.622 179.465 167.946C180.113 168.258 180.623 168.72 180.995 169.332L180.041 169.98C179.729 169.512 179.333 169.164 178.853 168.936C178.373 168.696 177.851 168.576 177.287 168.576C176.603 168.576 175.985 168.732 175.433 169.044C174.893 169.344 174.467 169.776 174.155 170.34C173.855 170.904 173.705 171.546 173.705 172.266C173.705 172.998 173.855 173.646 174.155 174.21C174.467 174.762 174.893 175.194 175.433 175.506C175.985 175.806 176.603 175.956 177.287 175.956C177.851 175.956 178.373 175.842 178.853 175.614C179.333 175.386 179.729 175.038 180.041 174.57L180.995 175.218C180.623 175.83 180.113 176.298 179.465 176.622C178.817 176.934 178.091 177.09 177.287 177.09ZM187.231 177.198C185.935 177.198 184.939 176.88 184.243 176.244C183.559 175.596 183.217 174.684 183.217 173.508V167.532H184.495V171.474C184.783 171.126 185.185 170.838 185.701 170.61C186.217 170.382 186.817 170.268 187.501 170.268C188.653 170.268 189.547 170.568 190.183 171.168C190.831 171.756 191.155 172.56 191.155 173.58C191.155 174.288 190.993 174.918 190.669 175.47C190.357 176.01 189.901 176.436 189.301 176.748C188.713 177.048 188.023 177.198 187.231 177.198ZM192.703 167.532H193.981V177H192.703V167.532ZM187.267 176.208C188.083 176.208 188.719 175.968 189.175 175.488C189.631 174.996 189.859 174.372 189.859 173.616C189.859 172.908 189.625 172.338 189.157 171.906C188.689 171.462 188.029 171.24 187.177 171.24C186.553 171.24 186.007 171.372 185.539 171.636C185.083 171.9 184.735 172.266 184.495 172.734V173.598C184.495 174.414 184.729 175.056 185.197 175.524C185.677 175.98 186.367 176.208 187.267 176.208ZM211.079 167.532V175.848C211.079 177.456 210.683 178.644 209.891 179.412C209.111 180.192 207.929 180.582 206.345 180.582C205.469 180.582 204.635 180.45 203.843 180.186C203.063 179.934 202.427 179.58 201.935 179.124L202.583 178.152C203.039 178.56 203.591 178.878 204.239 179.106C204.899 179.334 205.589 179.448 206.309 179.448C207.509 179.448 208.391 179.166 208.955 178.602C209.519 178.05 209.801 177.186 209.801 176.01V174.804C209.405 175.404 208.883 175.86 208.235 176.172C207.599 176.484 206.891 176.64 206.111 176.64C205.223 176.64 204.413 176.448 203.681 176.064C202.961 175.668 202.391 175.122 201.971 174.426C201.563 173.718 201.359 172.92 201.359 172.032C201.359 171.144 201.563 170.352 201.971 169.656C202.391 168.96 202.961 168.42 203.681 168.036C204.401 167.652 205.211 167.46 206.111 167.46C206.915 167.46 207.641 167.622 208.289 167.946C208.937 168.27 209.459 168.738 209.855 169.35V167.532H211.079ZM206.237 175.506C206.921 175.506 207.539 175.362 208.091 175.074C208.643 174.774 209.069 174.36 209.369 173.832C209.681 173.304 209.837 172.704 209.837 172.032C209.837 171.36 209.681 170.766 209.369 170.25C209.069 169.722 208.643 169.314 208.091 169.026C207.551 168.726 206.933 168.576 206.237 168.576C205.553 168.576 204.935 168.72 204.383 169.008C203.843 169.296 203.417 169.704 203.105 170.232C202.805 170.76 202.655 171.36 202.655 172.032C202.655 172.704 202.805 173.304 203.105 173.832C203.417 174.36 203.843 174.774 204.383 175.074C204.935 175.362 205.553 175.506 206.237 175.506ZM222.463 167.532V177H221.185V168.666H216.649L216.523 171.006C216.427 172.974 216.199 174.486 215.839 175.542C215.479 176.598 214.837 177.126 213.913 177.126C213.661 177.126 213.355 177.078 212.995 176.982L213.085 175.884C213.301 175.932 213.451 175.956 213.535 175.956C214.027 175.956 214.399 175.728 214.651 175.272C214.903 174.816 215.071 174.252 215.155 173.58C215.239 172.908 215.311 172.02 215.371 170.916L215.533 167.532H222.463ZM233.368 167.532V177H232.198V173.868H229.228H228.868L226.672 177H225.286L227.644 173.688C226.912 173.484 226.348 173.136 225.952 172.644C225.556 172.152 225.358 171.528 225.358 170.772C225.358 169.716 225.718 168.912 226.438 168.36C227.158 167.808 228.142 167.532 229.39 167.532H233.368ZM226.654 170.808C226.654 172.212 227.548 172.914 229.336 172.914H232.198V168.666H229.426C227.578 168.666 226.654 169.38 226.654 170.808ZM35.2914 189.532V199H34.0134V190.666H29.4774L29.3514 193.006C29.2554 194.974 29.0274 196.486 28.6674 197.542C28.3074 198.598 27.6654 199.126 26.7414 199.126C26.4894 199.126 26.1834 199.078 25.8234 198.982L25.9134 197.884C26.1294 197.932 26.2794 197.956 26.3634 197.956C26.8554 197.956 27.2274 197.728 27.4794 197.272C27.7314 196.816 27.8994 196.252 27.9834 195.58C28.0674 194.908 28.1394 194.02 28.1994 192.916L28.3614 189.532H35.2914ZM47.4204 189.532V197.848C47.4204 199.456 47.0544 200.644 46.3224 201.412C45.5904 202.192 44.4864 202.582 43.0104 202.582C42.1824 202.582 41.3964 202.45 40.6524 202.186C39.9204 201.934 39.3264 201.58 38.8704 201.124L39.5184 200.152C39.9264 200.56 40.4304 200.878 41.0304 201.106C41.6304 201.334 42.2724 201.448 42.9564 201.448C44.0484 201.448 44.8524 201.166 45.3684 200.602C45.8844 200.05 46.1424 199.186 46.1424 198.01V196.912C45.8064 197.464 45.3444 197.89 44.7564 198.19C44.1804 198.49 43.5264 198.64 42.7944 198.64C41.5584 198.64 40.5804 198.298 39.8604 197.614C39.1524 196.918 38.7984 195.904 38.7984 194.572V189.532H40.0764V194.446C40.0764 195.442 40.3224 196.198 40.8144 196.714C41.3064 197.23 42.0084 197.488 42.9204 197.488C43.9164 197.488 44.7024 197.188 45.2784 196.588C45.8544 195.976 46.1424 195.13 46.1424 194.05V189.532H47.4204ZM58.1818 189.532V199H56.9038V195.058C55.8118 195.538 54.7378 195.778 53.6818 195.778C52.5418 195.778 51.6538 195.52 51.0178 195.004C50.3818 194.476 50.0638 193.69 50.0638 192.646V189.532H51.3418V192.574C51.3418 193.282 51.5698 193.822 52.0258 194.194C52.4818 194.554 53.1118 194.734 53.9158 194.734C54.8038 194.734 55.7998 194.5 56.9038 194.032V189.532H58.1818ZM74.8792 189.532V199H61.8112V189.532H63.0892V197.884H67.7332V189.532H69.0112V197.884H73.6012V189.532H74.8792ZM86.862 189.532V199H85.638V197.272C85.302 197.848 84.84 198.298 84.252 198.622C83.664 198.934 82.992 199.09 82.236 199.09C80.988 199.09 80.004 198.748 79.284 198.064C78.576 197.368 78.222 196.354 78.222 195.022V189.532H79.5V194.896C79.5 195.892 79.746 196.648 80.238 197.164C80.73 197.68 81.438 197.938 82.362 197.938C83.358 197.938 84.144 197.638 84.72 197.038C85.296 196.426 85.584 195.58 85.584 194.5V189.532H86.862ZM96.4207 199L93.4147 195.04L90.3907 199H88.9507L92.6947 194.14L89.1307 189.532H90.5707L93.4147 193.24L96.2587 189.532H97.6627L94.0987 194.14L97.8787 199H96.4207ZM108.644 199.09C107.708 199.09 106.868 198.886 106.124 198.478C105.392 198.07 104.816 197.5 104.396 196.768C103.976 196.024 103.766 195.19 103.766 194.266C103.766 193.342 103.976 192.514 104.396 191.782C104.816 191.05 105.392 190.48 106.124 190.072C106.868 189.664 107.708 189.46 108.644 189.46C109.46 189.46 110.186 189.622 110.822 189.946C111.47 190.258 111.98 190.72 112.352 191.332L111.398 191.98C111.086 191.512 110.69 191.164 110.21 190.936C109.73 190.696 109.208 190.576 108.644 190.576C107.96 190.576 107.342 190.732 106.79 191.044C106.25 191.344 105.824 191.776 105.512 192.34C105.212 192.904 105.062 193.546 105.062 194.266C105.062 194.998 105.212 195.646 105.512 196.21C105.824 196.762 106.25 197.194 106.79 197.506C107.342 197.806 107.96 197.956 108.644 197.956C109.208 197.956 109.73 197.842 110.21 197.614C110.69 197.386 111.086 197.038 111.398 196.57L112.352 197.218C111.98 197.83 111.47 198.298 110.822 198.622C110.174 198.934 109.448 199.09 108.644 199.09ZM118.575 199.09C117.663 199.09 116.841 198.886 116.109 198.478C115.377 198.058 114.801 197.482 114.381 196.75C113.961 196.018 113.751 195.19 113.751 194.266C113.751 193.342 113.961 192.514 114.381 191.782C114.801 191.05 115.377 190.48 116.109 190.072C116.841 189.664 117.663 189.46 118.575 189.46C119.487 189.46 120.309 189.664 121.041 190.072C121.773 190.48 122.343 191.05 122.751 191.782C123.171 192.514 123.381 193.342 123.381 194.266C123.381 195.19 123.171 196.018 122.751 196.75C122.343 197.482 121.773 198.058 121.041 198.478C120.309 198.886 119.487 199.09 118.575 199.09ZM118.575 197.956C119.247 197.956 119.847 197.806 120.375 197.506C120.915 197.194 121.335 196.756 121.635 196.192C121.935 195.628 122.085 194.986 122.085 194.266C122.085 193.546 121.935 192.904 121.635 192.34C121.335 191.776 120.915 191.344 120.375 191.044C119.847 190.732 119.247 190.576 118.575 190.576C117.903 190.576 117.297 190.732 116.757 191.044C116.229 191.344 115.809 191.776 115.497 192.34C115.197 192.904 115.047 193.546 115.047 194.266C115.047 194.986 115.197 195.628 115.497 196.192C115.809 196.756 116.229 197.194 116.757 197.506C117.297 197.806 117.903 197.956 118.575 197.956ZM137.92 189.46C139.108 189.46 140.038 189.802 140.71 190.486C141.394 191.17 141.736 192.178 141.736 193.51V199H140.458V193.636C140.458 192.652 140.218 191.902 139.738 191.386C139.27 190.87 138.604 190.612 137.74 190.612C136.756 190.612 135.982 190.918 135.418 191.53C134.854 192.13 134.572 192.964 134.572 194.032V199H133.294V193.636C133.294 192.652 133.054 191.902 132.574 191.386C132.106 190.87 131.434 190.612 130.558 190.612C129.586 190.612 128.812 190.918 128.236 191.53C127.672 192.13 127.39 192.964 127.39 194.032V199H126.112V189.532H127.336V191.26C127.672 190.684 128.14 190.24 128.74 189.928C129.34 189.616 130.03 189.46 130.81 189.46C131.602 189.46 132.286 189.628 132.862 189.964C133.45 190.3 133.888 190.798 134.176 191.458C134.524 190.834 135.022 190.348 135.67 190C136.33 189.64 137.08 189.46 137.92 189.46ZM149.435 189.46C150.359 189.46 151.181 189.664 151.901 190.072C152.621 190.48 153.179 191.05 153.575 191.782C153.983 192.514 154.187 193.348 154.187 194.284C154.187 195.22 153.989 196.054 153.593 196.786C153.197 197.506 152.645 198.07 151.937 198.478C151.241 198.886 150.443 199.09 149.543 199.09C148.751 199.09 148.043 198.934 147.419 198.622C146.807 198.298 146.309 197.836 145.925 197.236V202.492H144.647V194.302C144.647 193.354 144.845 192.514 145.241 191.782C145.649 191.05 146.213 190.48 146.933 190.072C147.665 189.664 148.499 189.46 149.435 189.46ZM149.399 197.974C150.071 197.974 150.677 197.818 151.217 197.506C151.757 197.194 152.177 196.756 152.477 196.192C152.777 195.628 152.927 194.992 152.927 194.284C152.927 193.576 152.777 192.94 152.477 192.376C152.177 191.812 151.757 191.374 151.217 191.062C150.677 190.738 150.071 190.576 149.399 190.576C148.727 190.576 148.121 190.732 147.581 191.044C147.053 191.356 146.639 191.794 146.339 192.358C146.051 192.91 145.907 193.546 145.907 194.266C145.907 194.986 146.051 195.628 146.339 196.192C146.639 196.756 147.053 197.194 147.581 197.506C148.121 197.818 148.727 197.974 149.399 197.974ZM165.44 189.532V197.848C165.44 199.456 165.074 200.644 164.342 201.412C163.61 202.192 162.506 202.582 161.03 202.582C160.202 202.582 159.416 202.45 158.672 202.186C157.94 201.934 157.346 201.58 156.89 201.124L157.538 200.152C157.946 200.56 158.45 200.878 159.05 201.106C159.65 201.334 160.292 201.448 160.976 201.448C162.068 201.448 162.872 201.166 163.388 200.602C163.904 200.05 164.162 199.186 164.162 198.01V196.912C163.826 197.464 163.364 197.89 162.776 198.19C162.2 198.49 161.546 198.64 160.814 198.64C159.578 198.64 158.6 198.298 157.88 197.614C157.172 196.918 156.818 195.904 156.818 194.572V189.532H158.096V194.446C158.096 195.442 158.342 196.198 158.834 196.714C159.326 197.23 160.028 197.488 160.94 197.488C161.936 197.488 162.722 197.188 163.298 196.588C163.874 195.976 164.162 195.13 164.162 194.05V189.532H165.44ZM177.803 189.532V197.848C177.803 199.456 177.407 200.644 176.615 201.412C175.835 202.192 174.653 202.582 173.069 202.582C172.193 202.582 171.359 202.45 170.567 202.186C169.787 201.934 169.151 201.58 168.659 201.124L169.307 200.152C169.763 200.56 170.315 200.878 170.963 201.106C171.623 201.334 172.313 201.448 173.033 201.448C174.233 201.448 175.115 201.166 175.679 200.602C176.243 200.05 176.525 199.186 176.525 198.01V196.804C176.129 197.404 175.607 197.86 174.959 198.172C174.323 198.484 173.615 198.64 172.835 198.64C171.947 198.64 171.137 198.448 170.405 198.064C169.685 197.668 169.115 197.122 168.695 196.426C168.287 195.718 168.083 194.92 168.083 194.032C168.083 193.144 168.287 192.352 168.695 191.656C169.115 190.96 169.685 190.42 170.405 190.036C171.125 189.652 171.935 189.46 172.835 189.46C173.639 189.46 174.365 189.622 175.013 189.946C175.661 190.27 176.183 190.738 176.579 191.35V189.532H177.803ZM172.961 197.506C173.645 197.506 174.263 197.362 174.815 197.074C175.367 196.774 175.793 196.36 176.093 195.832C176.405 195.304 176.561 194.704 176.561 194.032C176.561 193.36 176.405 192.766 176.093 192.25C175.793 191.722 175.367 191.314 174.815 191.026C174.275 190.726 173.657 190.576 172.961 190.576C172.277 190.576 171.659 190.72 171.107 191.008C170.567 191.296 170.141 191.704 169.829 192.232C169.529 192.76 169.379 193.36 169.379 194.032C169.379 194.704 169.529 195.304 169.829 195.832C170.141 196.36 170.567 196.774 171.107 197.074C171.659 197.362 172.277 197.506 172.961 197.506ZM181.448 189.532H182.726V193.726H188.684V189.532H189.962V199H188.684V194.824H182.726V199H181.448V189.532ZM201.928 189.532V199H200.704V197.272C200.368 197.848 199.906 198.298 199.318 198.622C198.73 198.934 198.058 199.09 197.302 199.09C196.054 199.09 195.07 198.748 194.35 198.064C193.642 197.368 193.288 196.354 193.288 195.022V189.532H194.566V194.896C194.566 195.892 194.812 196.648 195.304 197.164C195.796 197.68 196.504 197.938 197.428 197.938C198.424 197.938 199.21 197.638 199.786 197.038C200.362 196.426 200.65 195.58 200.65 194.5V189.532H201.928ZM209.003 194.788H206.843V199H205.565V189.532H206.843V193.69H209.021L212.351 189.532H213.737L210.011 194.122L214.007 199H212.495L209.003 194.788ZM219.596 199.09C218.684 199.09 217.862 198.886 217.13 198.478C216.398 198.058 215.822 197.482 215.402 196.75C214.982 196.018 214.772 195.19 214.772 194.266C214.772 193.342 214.982 192.514 215.402 191.782C215.822 191.05 216.398 190.48 217.13 190.072C217.862 189.664 218.684 189.46 219.596 189.46C220.508 189.46 221.33 189.664 222.062 190.072C222.794 190.48 223.364 191.05 223.772 191.782C224.192 192.514 224.402 193.342 224.402 194.266C224.402 195.19 224.192 196.018 223.772 196.75C223.364 197.482 222.794 198.058 222.062 198.478C221.33 198.886 220.508 199.09 219.596 199.09ZM219.596 197.956C220.268 197.956 220.868 197.806 221.396 197.506C221.936 197.194 222.356 196.756 222.656 196.192C222.956 195.628 223.106 194.986 223.106 194.266C223.106 193.546 222.956 192.904 222.656 192.34C222.356 191.776 221.936 191.344 221.396 191.044C220.868 190.732 220.268 190.576 219.596 190.576C218.924 190.576 218.318 190.732 217.778 191.044C217.25 191.344 216.83 191.776 216.518 192.34C216.218 192.904 216.068 193.546 216.068 194.266C216.068 194.986 216.218 195.628 216.518 196.192C216.83 196.756 217.25 197.194 217.778 197.506C218.318 197.806 218.924 197.956 219.596 197.956ZM233.163 194.104C234.447 194.404 235.089 195.178 235.089 196.426C235.089 197.254 234.783 197.89 234.171 198.334C233.559 198.778 232.647 199 231.435 199H227.133V189.532H231.309C232.389 189.532 233.235 189.742 233.847 190.162C234.459 190.582 234.765 191.182 234.765 191.962C234.765 192.478 234.621 192.922 234.333 193.294C234.057 193.654 233.667 193.924 233.163 194.104ZM228.375 193.744H231.219C231.951 193.744 232.509 193.606 232.893 193.33C233.289 193.054 233.487 192.652 233.487 192.124C233.487 191.596 233.289 191.2 232.893 190.936C232.509 190.672 231.951 190.54 231.219 190.54H228.375V193.744ZM231.381 197.992C232.197 197.992 232.809 197.86 233.217 197.596C233.625 197.332 233.829 196.918 233.829 196.354C233.829 195.79 233.643 195.376 233.271 195.112C232.899 194.836 232.311 194.698 231.507 194.698H228.375V197.992H231.381Z" fill="#24252E"/>
</svg>
