<svg width="262" height="224" viewBox="0 0 262 224" fill="none" xmlns="http://www.w3.org/2000/svg">
<rect x="0.5" y="0.5" width="261" height="223" rx="39.5" fill="#F6FCFF"/>
<rect x="0.5" y="0.5" width="261" height="223" rx="39.5" stroke="#E2E8F7"/>
<path d="M123.5 120C146.972 120 166 100.972 166 77.5C166 54.0279 146.972 35 123.5 35C100.028 35 81 54.0279 81 77.5C81 100.972 100.028 120 123.5 120Z" fill="#A1BCE8"/>
<path d="M101.5 89C102.7 89 103.8 88.5 104.6 87.7L129 63.6L138.9 73.4001C140.6 75.1001 143.3 75.1001 145 73.4001L172.3 46.4V56.1C172.3 58.5 174.2 60.4001 176.6 60.4001C179 60.4001 180.9 58.5 180.9 56.1V36.1C180.9 33.7 179 31.8 176.6 31.8H156.4C154 31.8 152.1 33.7 152.1 36.1C152.1 38.5 154 40.4 156.4 40.4H166.2L142 64.3L132 54.5C130.3 52.8 127.6 52.8 125.9 54.5L98.4 81.7001C96.7 83.4001 96.7 86.1001 98.4 87.8001C99.2 88.5001 100.3 89 101.5 89Z" fill="#24252E"/>
<path d="M116.4 101.9C116.4 99.5 114.5 97.6 112.1 97.6H101.5C99.1002 97.6 97.2002 99.5 97.2002 101.9C97.2002 104.3 99.1002 106.2 101.5 106.2H112.2C114.5 106.2 116.4 104.2 116.4 101.9Z" fill="#1C303A" fill-opacity="0.5"/>
<path d="M176.7 97.6H128C125.6 97.6 123.7 99.5 123.7 101.9C123.7 104.3 125.6 106.2 128 106.2H176.6C179 106.2 180.9 104.3 180.9 101.9C181 99.5 179.1 97.6 176.7 97.6Z" fill="#24252E"/>
<path d="M36.259 170.502C37.135 170.682 37.801 171.036 38.257 171.564C38.713 172.08 38.941 172.758 38.941 173.598C38.941 174.69 38.551 175.53 37.771 176.118C37.003 176.706 35.869 177 34.369 177H28.789V164.4H34.027C35.371 164.4 36.421 164.676 37.177 165.228C37.933 165.78 38.311 166.578 38.311 167.622C38.311 168.33 38.131 168.93 37.771 169.422C37.411 169.902 36.907 170.262 36.259 170.502ZM30.103 170.106H33.955C34.927 170.106 35.671 169.908 36.187 169.512C36.715 169.116 36.979 168.54 36.979 167.784C36.979 167.028 36.715 166.452 36.187 166.056C35.671 165.66 34.927 165.462 33.955 165.462H30.103V170.106ZM34.369 175.938C36.541 175.938 37.627 175.128 37.627 173.508C37.627 171.924 36.541 171.132 34.369 171.132H30.103V175.938H34.369ZM45.8715 177.09C44.9595 177.09 44.1375 176.886 43.4055 176.478C42.6735 176.058 42.0975 175.482 41.6775 174.75C41.2575 174.018 41.0475 173.19 41.0475 172.266C41.0475 171.342 41.2575 170.514 41.6775 169.782C42.0975 169.05 42.6735 168.48 43.4055 168.072C44.1375 167.664 44.9595 167.46 45.8715 167.46C46.7835 167.46 47.6055 167.664 48.3375 168.072C49.0695 168.48 49.6395 169.05 50.0475 169.782C50.4675 170.514 50.6775 171.342 50.6775 172.266C50.6775 173.19 50.4675 174.018 50.0475 174.75C49.6395 175.482 49.0695 176.058 48.3375 176.478C47.6055 176.886 46.7835 177.09 45.8715 177.09ZM45.8715 175.956C46.5435 175.956 47.1435 175.806 47.6715 175.506C48.2115 175.194 48.6315 174.756 48.9315 174.192C49.2315 173.628 49.3815 172.986 49.3815 172.266C49.3815 171.546 49.2315 170.904 48.9315 170.34C48.6315 169.776 48.2115 169.344 47.6715 169.044C47.1435 168.732 46.5435 168.576 45.8715 168.576C45.1995 168.576 44.5935 168.732 44.0535 169.044C43.5255 169.344 43.1055 169.776 42.7935 170.34C42.4935 170.904 42.3435 171.546 42.3435 172.266C42.3435 172.986 42.4935 173.628 42.7935 174.192C43.1055 174.756 43.5255 175.194 44.0535 175.506C44.5935 175.806 45.1995 175.956 45.8715 175.956ZM57.9465 172.068C58.6185 172.224 59.1345 172.494 59.4945 172.878C59.8665 173.262 60.0525 173.73 60.0525 174.282C60.0525 174.834 59.8605 175.326 59.4765 175.758C59.1045 176.19 58.5945 176.526 57.9465 176.766C57.2985 176.994 56.5845 177.108 55.8045 177.108C55.1205 177.108 54.4485 177.012 53.7885 176.82C53.1285 176.616 52.5525 176.322 52.0605 175.938L52.4925 174.984C52.9245 175.308 53.4285 175.56 54.0045 175.74C54.5805 175.92 55.1625 176.01 55.7505 176.01C56.6265 176.01 57.3405 175.848 57.8925 175.524C58.4565 175.188 58.7385 174.738 58.7385 174.174C58.7385 173.67 58.5105 173.28 58.0545 173.004C57.5985 172.716 56.9745 172.572 56.1825 172.572H54.5625V171.636H56.1105C56.8185 171.636 57.3885 171.504 57.8205 171.24C58.2525 170.964 58.4685 170.598 58.4685 170.142C58.4685 169.638 58.2225 169.242 57.7305 168.954C57.2505 168.666 56.6205 168.522 55.8405 168.522C54.8205 168.522 53.8125 168.78 52.8165 169.296L52.4565 168.306C53.5845 167.718 54.7545 167.424 55.9665 167.424C56.6865 167.424 57.3345 167.532 57.9105 167.748C58.4985 167.952 58.9545 168.246 59.2785 168.63C59.6145 169.014 59.7825 169.458 59.7825 169.962C59.7825 170.442 59.6145 170.868 59.2785 171.24C58.9545 171.612 58.5105 171.888 57.9465 172.068ZM73.5377 167.532V177H72.3677V169.512L68.5337 175.848H67.9577L64.1237 169.494V177H62.9537V167.532H64.2497L68.2637 174.354L72.3497 167.532H73.5377ZM81.0804 177.09C80.1684 177.09 79.3464 176.886 78.6144 176.478C77.8824 176.058 77.3064 175.482 76.8864 174.75C76.4664 174.018 76.2564 173.19 76.2564 172.266C76.2564 171.342 76.4664 170.514 76.8864 169.782C77.3064 169.05 77.8824 168.48 78.6144 168.072C79.3464 167.664 80.1684 167.46 81.0804 167.46C81.9924 167.46 82.8144 167.664 83.5464 168.072C84.2784 168.48 84.8484 169.05 85.2564 169.782C85.6764 170.514 85.8864 171.342 85.8864 172.266C85.8864 173.19 85.6764 174.018 85.2564 174.75C84.8484 175.482 84.2784 176.058 83.5464 176.478C82.8144 176.886 81.9924 177.09 81.0804 177.09ZM81.0804 175.956C81.7524 175.956 82.3524 175.806 82.8804 175.506C83.4204 175.194 83.8404 174.756 84.1404 174.192C84.4404 173.628 84.5904 172.986 84.5904 172.266C84.5904 171.546 84.4404 170.904 84.1404 170.34C83.8404 169.776 83.4204 169.344 82.8804 169.044C82.3524 168.732 81.7524 168.576 81.0804 168.576C80.4084 168.576 79.8024 168.732 79.2624 169.044C78.7344 169.344 78.3144 169.776 78.0024 170.34C77.7024 170.904 77.5524 171.546 77.5524 172.266C77.5524 172.986 77.7024 173.628 78.0024 174.192C78.3144 174.756 78.7344 175.194 79.2624 175.506C79.8024 175.806 80.4084 175.956 81.0804 175.956ZM96.5818 172.788H94.5298V177H93.2518V172.788H91.1998L88.3018 177H86.7718L90.1738 172.122L87.0418 167.532H88.4278L91.1998 171.69H93.2518V167.532H94.5298V171.69H96.5818L99.3718 167.532H100.758L97.6258 172.14L101.028 177H99.4978L96.5818 172.788ZM103.155 167.532H104.433V171.726H110.391V167.532H111.669V177H110.391V172.824H104.433V177H103.155V167.532ZM119.207 177.09C118.295 177.09 117.473 176.886 116.741 176.478C116.009 176.058 115.433 175.482 115.013 174.75C114.593 174.018 114.383 173.19 114.383 172.266C114.383 171.342 114.593 170.514 115.013 169.782C115.433 169.05 116.009 168.48 116.741 168.072C117.473 167.664 118.295 167.46 119.207 167.46C120.119 167.46 120.941 167.664 121.673 168.072C122.405 168.48 122.975 169.05 123.383 169.782C123.803 170.514 124.013 171.342 124.013 172.266C124.013 173.19 123.803 174.018 123.383 174.75C122.975 175.482 122.405 176.058 121.673 176.478C120.941 176.886 120.119 177.09 119.207 177.09ZM119.207 175.956C119.879 175.956 120.479 175.806 121.007 175.506C121.547 175.194 121.967 174.756 122.267 174.192C122.567 173.628 122.717 172.986 122.717 172.266C122.717 171.546 122.567 170.904 122.267 170.34C121.967 169.776 121.547 169.344 121.007 169.044C120.479 168.732 119.879 168.576 119.207 168.576C118.535 168.576 117.929 168.732 117.389 169.044C116.861 169.344 116.441 169.776 116.129 170.34C115.829 170.904 115.679 171.546 115.679 172.266C115.679 172.986 115.829 173.628 116.129 174.192C116.441 174.756 116.861 175.194 117.389 175.506C117.929 175.806 118.535 175.956 119.207 175.956ZM130.705 177.09C129.769 177.09 128.929 176.886 128.185 176.478C127.453 176.07 126.877 175.5 126.457 174.768C126.037 174.024 125.827 173.19 125.827 172.266C125.827 171.342 126.037 170.514 126.457 169.782C126.877 169.05 127.453 168.48 128.185 168.072C128.929 167.664 129.769 167.46 130.705 167.46C131.521 167.46 132.247 167.622 132.883 167.946C133.531 168.258 134.041 168.72 134.413 169.332L133.459 169.98C133.147 169.512 132.751 169.164 132.271 168.936C131.791 168.696 131.269 168.576 130.705 168.576C130.021 168.576 129.403 168.732 128.851 169.044C128.311 169.344 127.885 169.776 127.573 170.34C127.273 170.904 127.123 171.546 127.123 172.266C127.123 172.998 127.273 173.646 127.573 174.21C127.885 174.762 128.311 175.194 128.851 175.506C129.403 175.806 130.021 175.956 130.705 175.956C131.269 175.956 131.791 175.842 132.271 175.614C132.751 175.386 133.147 175.038 133.459 174.57L134.413 175.218C134.041 175.83 133.531 176.298 132.883 176.622C132.235 176.934 131.509 177.09 130.705 177.09ZM148.695 167.46C149.883 167.46 150.813 167.802 151.485 168.486C152.169 169.17 152.511 170.178 152.511 171.51V177H151.233V171.636C151.233 170.652 150.993 169.902 150.513 169.386C150.045 168.87 149.379 168.612 148.515 168.612C147.531 168.612 146.757 168.918 146.193 169.53C145.629 170.13 145.347 170.964 145.347 172.032V177H144.069V171.636C144.069 170.652 143.829 169.902 143.349 169.386C142.881 168.87 142.209 168.612 141.333 168.612C140.361 168.612 139.587 168.918 139.011 169.53C138.447 170.13 138.165 170.964 138.165 172.032V177H136.887V167.532H138.111V169.26C138.447 168.684 138.915 168.24 139.515 167.928C140.115 167.616 140.805 167.46 141.585 167.46C142.377 167.46 143.061 167.628 143.637 167.964C144.225 168.3 144.663 168.798 144.951 169.458C145.299 168.834 145.797 168.348 146.445 168C147.105 167.64 147.855 167.46 148.695 167.46ZM164.188 167.532V177H162.964V175.272C162.628 175.848 162.166 176.298 161.578 176.622C160.99 176.934 160.318 177.09 159.562 177.09C158.314 177.09 157.33 176.748 156.61 176.064C155.902 175.368 155.548 174.354 155.548 173.022V167.532H156.826V172.896C156.826 173.892 157.072 174.648 157.564 175.164C158.056 175.68 158.764 175.938 159.688 175.938C160.684 175.938 161.47 175.638 162.046 175.038C162.622 174.426 162.91 173.58 162.91 172.5V167.532H164.188ZM176.892 167.46C177.816 167.46 178.638 167.664 179.358 168.072C180.078 168.48 180.636 169.05 181.032 169.782C181.44 170.514 181.644 171.348 181.644 172.284C181.644 173.22 181.446 174.054 181.05 174.786C180.654 175.506 180.102 176.07 179.394 176.478C178.698 176.886 177.9 177.09 177 177.09C176.208 177.09 175.5 176.934 174.876 176.622C174.264 176.298 173.766 175.836 173.382 175.236V180.492H172.104V172.302C172.104 171.354 172.302 170.514 172.698 169.782C173.106 169.05 173.67 168.48 174.39 168.072C175.122 167.664 175.956 167.46 176.892 167.46ZM176.856 175.974C177.528 175.974 178.134 175.818 178.674 175.506C179.214 175.194 179.634 174.756 179.934 174.192C180.234 173.628 180.384 172.992 180.384 172.284C180.384 171.576 180.234 170.94 179.934 170.376C179.634 169.812 179.214 169.374 178.674 169.062C178.134 168.738 177.528 168.576 176.856 168.576C176.184 168.576 175.578 168.732 175.038 169.044C174.51 169.356 174.096 169.794 173.796 170.358C173.508 170.91 173.364 171.546 173.364 172.266C173.364 172.986 173.508 173.628 173.796 174.192C174.096 174.756 174.51 175.194 175.038 175.506C175.578 175.818 176.184 175.974 176.856 175.974ZM188.307 177.09C187.395 177.09 186.573 176.886 185.841 176.478C185.109 176.058 184.533 175.482 184.113 174.75C183.693 174.018 183.483 173.19 183.483 172.266C183.483 171.342 183.693 170.514 184.113 169.782C184.533 169.05 185.109 168.48 185.841 168.072C186.573 167.664 187.395 167.46 188.307 167.46C189.219 167.46 190.041 167.664 190.773 168.072C191.505 168.48 192.075 169.05 192.483 169.782C192.903 170.514 193.113 171.342 193.113 172.266C193.113 173.19 192.903 174.018 192.483 174.75C192.075 175.482 191.505 176.058 190.773 176.478C190.041 176.886 189.219 177.09 188.307 177.09ZM188.307 175.956C188.979 175.956 189.579 175.806 190.107 175.506C190.647 175.194 191.067 174.756 191.367 174.192C191.667 173.628 191.817 172.986 191.817 172.266C191.817 171.546 191.667 170.904 191.367 170.34C191.067 169.776 190.647 169.344 190.107 169.044C189.579 168.732 188.979 168.576 188.307 168.576C187.635 168.576 187.029 168.732 186.489 169.044C185.961 169.344 185.541 169.776 185.229 170.34C184.929 170.904 184.779 171.546 184.779 172.266C184.779 172.986 184.929 173.628 185.229 174.192C185.541 174.756 185.961 175.194 186.489 175.506C187.029 175.806 187.635 175.956 188.307 175.956ZM199.804 177.09C198.868 177.09 198.028 176.886 197.284 176.478C196.552 176.07 195.976 175.5 195.556 174.768C195.136 174.024 194.926 173.19 194.926 172.266C194.926 171.342 195.136 170.514 195.556 169.782C195.976 169.05 196.552 168.48 197.284 168.072C198.028 167.664 198.868 167.46 199.804 167.46C200.62 167.46 201.346 167.622 201.982 167.946C202.63 168.258 203.14 168.72 203.512 169.332L202.558 169.98C202.246 169.512 201.85 169.164 201.37 168.936C200.89 168.696 200.368 168.576 199.804 168.576C199.12 168.576 198.502 168.732 197.95 169.044C197.41 169.344 196.984 169.776 196.672 170.34C196.372 170.904 196.222 171.546 196.222 172.266C196.222 172.998 196.372 173.646 196.672 174.21C196.984 174.762 197.41 175.194 197.95 175.506C198.502 175.806 199.12 175.956 199.804 175.956C200.368 175.956 200.89 175.842 201.37 175.614C201.85 175.386 202.246 175.038 202.558 174.57L203.512 175.218C203.14 175.83 202.63 176.298 201.982 176.622C201.334 176.934 200.608 177.09 199.804 177.09ZM217.795 167.46C218.983 167.46 219.913 167.802 220.585 168.486C221.269 169.17 221.611 170.178 221.611 171.51V177H220.333V171.636C220.333 170.652 220.093 169.902 219.613 169.386C219.145 168.87 218.479 168.612 217.615 168.612C216.631 168.612 215.857 168.918 215.293 169.53C214.729 170.13 214.447 170.964 214.447 172.032V177H213.169V171.636C213.169 170.652 212.929 169.902 212.449 169.386C211.981 168.87 211.309 168.612 210.433 168.612C209.461 168.612 208.687 168.918 208.111 169.53C207.547 170.13 207.265 170.964 207.265 172.032V177H205.987V167.532H207.211V169.26C207.547 168.684 208.015 168.24 208.615 167.928C209.215 167.616 209.905 167.46 210.685 167.46C211.477 167.46 212.161 167.628 212.737 167.964C213.325 168.3 213.763 168.798 214.051 169.458C214.399 168.834 214.897 168.348 215.545 168C216.205 167.64 216.955 167.46 217.795 167.46ZM233.558 167.532V177H232.334V175.128C231.95 175.764 231.44 176.25 230.804 176.586C230.18 176.922 229.472 177.09 228.68 177.09C227.792 177.09 226.988 176.886 226.268 176.478C225.548 176.07 224.984 175.5 224.576 174.768C224.168 174.036 223.964 173.202 223.964 172.266C223.964 171.33 224.168 170.496 224.576 169.764C224.984 169.032 225.548 168.468 226.268 168.072C226.988 167.664 227.792 167.46 228.68 167.46C229.448 167.46 230.138 167.622 230.75 167.946C231.374 168.258 231.884 168.72 232.28 169.332V167.532H233.558ZM228.788 175.956C229.448 175.956 230.042 175.806 230.57 175.506C231.11 175.194 231.53 174.756 231.83 174.192C232.142 173.628 232.298 172.986 232.298 172.266C232.298 171.546 232.142 170.904 231.83 170.34C231.53 169.776 231.11 169.344 230.57 169.044C230.042 168.732 229.448 168.576 228.788 168.576C228.116 168.576 227.51 168.732 226.97 169.044C226.442 169.344 226.022 169.776 225.71 170.34C225.41 170.904 225.26 171.546 225.26 172.266C225.26 172.986 225.41 173.628 225.71 174.192C226.022 174.756 226.442 175.194 226.97 175.506C227.51 175.806 228.116 175.956 228.788 175.956ZM63.2614 189.532H64.5394V193.726H70.4974V189.532H71.7754V199H70.4974V194.824H64.5394V199H63.2614V189.532ZM79.4218 197.956C80.0098 197.956 80.5498 197.854 81.0418 197.65C81.5458 197.434 81.9718 197.122 82.3198 196.714L83.0398 197.542C82.6198 198.046 82.0978 198.43 81.4738 198.694C80.8498 198.958 80.1598 199.09 79.4038 199.09C78.4318 199.09 77.5678 198.886 76.8118 198.478C76.0558 198.058 75.4678 197.482 75.0478 196.75C74.6278 196.018 74.4178 195.19 74.4178 194.266C74.4178 193.342 74.6158 192.514 75.0118 191.782C75.4198 191.05 75.9778 190.48 76.6858 190.072C77.3938 189.664 78.1978 189.46 79.0978 189.46C79.9378 189.46 80.6938 189.652 81.3658 190.036C82.0498 190.42 82.5898 190.954 82.9858 191.638C83.3938 192.322 83.6098 193.102 83.6338 193.978L75.8578 195.49C76.0978 196.258 76.5298 196.864 77.1538 197.308C77.7898 197.74 78.5458 197.956 79.4218 197.956ZM79.0978 190.558C78.4378 190.558 77.8438 190.714 77.3158 191.026C76.7998 191.326 76.3918 191.752 76.0918 192.304C75.8038 192.844 75.6598 193.468 75.6598 194.176C75.6598 194.356 75.6658 194.488 75.6778 194.572L82.3558 193.276C82.2118 192.484 81.8458 191.836 81.2578 191.332C80.6698 190.816 79.9498 190.558 79.0978 190.558ZM90.1771 199.09C89.2651 199.09 88.4431 198.886 87.7111 198.478C86.9791 198.058 86.4031 197.482 85.9831 196.75C85.5631 196.018 85.3531 195.19 85.3531 194.266C85.3531 193.342 85.5631 192.514 85.9831 191.782C86.4031 191.05 86.9791 190.48 87.7111 190.072C88.4431 189.664 89.2651 189.46 90.1771 189.46C91.0891 189.46 91.9111 189.664 92.6431 190.072C93.3751 190.48 93.9451 191.05 94.3531 191.782C94.7731 192.514 94.9831 193.342 94.9831 194.266C94.9831 195.19 94.7731 196.018 94.3531 196.75C93.9451 197.482 93.3751 198.058 92.6431 198.478C91.9111 198.886 91.0891 199.09 90.1771 199.09ZM90.1771 197.956C90.8491 197.956 91.4491 197.806 91.9771 197.506C92.5171 197.194 92.9371 196.756 93.2371 196.192C93.5371 195.628 93.6871 194.986 93.6871 194.266C93.6871 193.546 93.5371 192.904 93.2371 192.34C92.9371 191.776 92.5171 191.344 91.9771 191.044C91.4491 190.732 90.8491 190.576 90.1771 190.576C89.5051 190.576 88.8991 190.732 88.3591 191.044C87.8311 191.344 87.4111 191.776 87.0991 192.34C86.7991 192.904 86.6491 193.546 86.6491 194.266C86.6491 194.986 86.7991 195.628 87.0991 196.192C87.4111 196.756 87.8311 197.194 88.3591 197.506C88.8991 197.806 89.5051 197.956 90.1771 197.956ZM104.41 190.666H98.9925V199H97.7145V189.532H104.41V190.666ZM110.613 189.46C111.537 189.46 112.359 189.664 113.079 190.072C113.799 190.48 114.357 191.05 114.753 191.782C115.161 192.514 115.365 193.348 115.365 194.284C115.365 195.22 115.167 196.054 114.771 196.786C114.375 197.506 113.823 198.07 113.115 198.478C112.419 198.886 111.621 199.09 110.721 199.09C109.929 199.09 109.221 198.934 108.597 198.622C107.985 198.298 107.487 197.836 107.103 197.236V202.492H105.825V194.302C105.825 193.354 106.023 192.514 106.419 191.782C106.827 191.05 107.391 190.48 108.111 190.072C108.843 189.664 109.677 189.46 110.613 189.46ZM110.577 197.974C111.249 197.974 111.855 197.818 112.395 197.506C112.935 197.194 113.355 196.756 113.655 196.192C113.955 195.628 114.105 194.992 114.105 194.284C114.105 193.576 113.955 192.94 113.655 192.376C113.355 191.812 112.935 191.374 112.395 191.062C111.855 190.738 111.249 190.576 110.577 190.576C109.905 190.576 109.299 190.732 108.759 191.044C108.231 191.356 107.817 191.794 107.517 192.358C107.229 192.91 107.085 193.546 107.085 194.266C107.085 194.986 107.229 195.628 107.517 196.192C107.817 196.756 108.231 197.194 108.759 197.506C109.299 197.818 109.905 197.974 110.577 197.974ZM126.727 189.532V199H125.503V197.128C125.119 197.764 124.609 198.25 123.973 198.586C123.349 198.922 122.641 199.09 121.849 199.09C120.961 199.09 120.157 198.886 119.437 198.478C118.717 198.07 118.153 197.5 117.745 196.768C117.337 196.036 117.133 195.202 117.133 194.266C117.133 193.33 117.337 192.496 117.745 191.764C118.153 191.032 118.717 190.468 119.437 190.072C120.157 189.664 120.961 189.46 121.849 189.46C122.617 189.46 123.307 189.622 123.919 189.946C124.543 190.258 125.053 190.72 125.449 191.332V189.532H126.727ZM121.957 197.956C122.617 197.956 123.211 197.806 123.739 197.506C124.279 197.194 124.699 196.756 124.999 196.192C125.311 195.628 125.467 194.986 125.467 194.266C125.467 193.546 125.311 192.904 124.999 192.34C124.699 191.776 124.279 191.344 123.739 191.044C123.211 190.732 122.617 190.576 121.957 190.576C121.285 190.576 120.679 190.732 120.139 191.044C119.611 191.344 119.191 191.776 118.879 192.34C118.579 192.904 118.429 193.546 118.429 194.266C118.429 194.986 118.579 195.628 118.879 196.192C119.191 196.756 119.611 197.194 120.139 197.506C120.679 197.806 121.285 197.956 121.957 197.956ZM130.322 189.532H131.6V193.726H137.558V189.532H138.836V199H137.558V194.824H131.6V199H130.322V189.532ZM150.802 189.532V199H149.578V197.272C149.242 197.848 148.78 198.298 148.192 198.622C147.604 198.934 146.932 199.09 146.176 199.09C144.928 199.09 143.944 198.748 143.224 198.064C142.516 197.368 142.162 196.354 142.162 195.022V189.532H143.44V194.896C143.44 195.892 143.686 196.648 144.178 197.164C144.67 197.68 145.378 197.938 146.302 197.938C147.298 197.938 148.084 197.638 148.66 197.038C149.236 196.426 149.524 195.58 149.524 194.5V189.532H150.802ZM161.585 189.532V199H160.307V195.058C159.215 195.538 158.141 195.778 157.085 195.778C155.945 195.778 155.057 195.52 154.421 195.004C153.785 194.476 153.467 193.69 153.467 192.646V189.532H154.745V192.574C154.745 193.282 154.973 193.822 155.429 194.194C155.885 194.554 156.515 194.734 157.319 194.734C158.207 194.734 159.203 194.5 160.307 194.032V189.532H161.585ZM169.228 197.956C169.816 197.956 170.356 197.854 170.848 197.65C171.352 197.434 171.778 197.122 172.126 196.714L172.846 197.542C172.426 198.046 171.904 198.43 171.28 198.694C170.656 198.958 169.966 199.09 169.21 199.09C168.238 199.09 167.374 198.886 166.618 198.478C165.862 198.058 165.274 197.482 164.854 196.75C164.434 196.018 164.224 195.19 164.224 194.266C164.224 193.342 164.422 192.514 164.818 191.782C165.226 191.05 165.784 190.48 166.492 190.072C167.2 189.664 168.004 189.46 168.904 189.46C169.744 189.46 170.5 189.652 171.172 190.036C171.856 190.42 172.396 190.954 172.792 191.638C173.2 192.322 173.416 193.102 173.44 193.978L165.664 195.49C165.904 196.258 166.336 196.864 166.96 197.308C167.596 197.74 168.352 197.956 169.228 197.956ZM168.904 190.558C168.244 190.558 167.65 190.714 167.122 191.026C166.606 191.326 166.198 191.752 165.898 192.304C165.61 192.844 165.466 193.468 165.466 194.176C165.466 194.356 165.472 194.488 165.484 194.572L172.162 193.276C172.018 192.484 171.652 191.836 171.064 191.332C170.476 190.816 169.756 190.558 168.904 190.558ZM176.078 189.532H177.356V193.726H183.314V189.532H184.592V199H183.314V194.824H177.356V199H176.078V189.532ZM191.986 199.198C190.69 199.198 189.694 198.88 188.998 198.244C188.314 197.596 187.972 196.684 187.972 195.508V189.532H189.25V193.474C189.538 193.126 189.94 192.838 190.456 192.61C190.972 192.382 191.572 192.268 192.256 192.268C193.408 192.268 194.302 192.568 194.938 193.168C195.586 193.756 195.91 194.56 195.91 195.58C195.91 196.288 195.748 196.918 195.424 197.47C195.112 198.01 194.656 198.436 194.056 198.748C193.468 199.048 192.778 199.198 191.986 199.198ZM197.458 189.532H198.736V199H197.458V189.532ZM192.022 198.208C192.838 198.208 193.474 197.968 193.93 197.488C194.386 196.996 194.614 196.372 194.614 195.616C194.614 194.908 194.38 194.338 193.912 193.906C193.444 193.462 192.784 193.24 191.932 193.24C191.308 193.24 190.762 193.372 190.294 193.636C189.838 193.9 189.49 194.266 189.25 194.734V195.598C189.25 196.414 189.484 197.056 189.952 197.524C190.432 197.98 191.122 198.208 192.022 198.208Z" fill="#24252E"/>
</svg>
