<svg width="263" height="224" viewBox="0 0 263 224" fill="none" xmlns="http://www.w3.org/2000/svg">
<rect x="0.833496" y="0.5" width="261" height="223" rx="39.5" fill="#F6FCFF"/>
<rect x="0.833496" y="0.5" width="261" height="223" rx="39.5" stroke="#E2E8F7"/>
<g clip-path="url(#clip0_305_686)">
<path d="M123.833 120C147.306 120 166.333 100.972 166.333 77.5C166.333 54.0279 147.306 35 123.833 35C100.361 35 81.3335 54.0279 81.3335 77.5C81.3335 100.972 100.361 120 123.833 120Z" fill="#FBBDAA"/>
<path d="M136.334 105.4C135.134 105.4 134.034 104.9 133.234 104.1L126.734 97.6C125.034 95.9 125.034 93.1001 126.734 91.4001C128.434 89.7001 131.234 89.7001 132.934 91.4001L136.334 94.8L168.034 63.1C174.134 57 174.134 47.1 168.034 41C161.934 34.9 152.034 34.9 145.934 41L139.434 47.5C137.734 49.2001 134.934 49.2001 133.234 47.5L126.834 41.1C120.734 35 110.834 35 104.734 41.1C98.6336 47.2 98.6336 57.1 104.734 63.2001L122.034 80.5C123.734 82.2001 123.734 85 122.034 86.7C120.334 88.4 117.534 88.4 115.834 86.7L98.4336 69.4001C88.9336 59.9001 88.9336 44.4 98.4336 34.9C107.934 25.4 123.434 25.4 132.934 34.9L136.234 38.2L139.634 34.8C149.134 25.3 164.634 25.3 174.134 34.8C183.634 44.3 183.634 59.8 174.134 69.3L139.434 104.1C138.634 105 137.434 105.4 136.334 105.4Z" fill="#1C303A"/>
<path d="M113.034 57.4C114.234 56.2 114.434 54.6 113.934 53.2C113.734 52.8 113.734 52.2 113.834 51.7C114.034 50.8 114.734 50.1 115.634 49.9C116.134 49.8 116.634 49.8 117.134 50C118.534 50.5 120.134 50.3 121.234 49.2L121.334 49.1C123.134 47.3 122.634 44.2 120.234 43.1C118.634 42.4 116.734 42.1 114.834 42.4C110.534 43 107.034 46.5 106.334 50.9C106.034 52.8 106.334 54.7 107.034 56.3C108.034 58.6 111.234 59.2 113.034 57.4Z" fill="#1C303A" fill-opacity="0.5"/>
</g>
<path d="M36.9384 164.4V177H35.6244V165.552H27.6504V177H26.3364V164.4H36.9384ZM44.7899 177.09C43.8779 177.09 43.0559 176.886 42.3239 176.478C41.5919 176.058 41.0159 175.482 40.5959 174.75C40.1759 174.018 39.9659 173.19 39.9659 172.266C39.9659 171.342 40.1759 170.514 40.5959 169.782C41.0159 169.05 41.5919 168.48 42.3239 168.072C43.0559 167.664 43.8779 167.46 44.7899 167.46C45.7019 167.46 46.5239 167.664 47.2559 168.072C47.9879 168.48 48.5579 169.05 48.9659 169.782C49.3859 170.514 49.5959 171.342 49.5959 172.266C49.5959 173.19 49.3859 174.018 48.9659 174.75C48.5579 175.482 47.9879 176.058 47.2559 176.478C46.5239 176.886 45.7019 177.09 44.7899 177.09ZM44.7899 175.956C45.4619 175.956 46.0619 175.806 46.5899 175.506C47.1299 175.194 47.5499 174.756 47.8499 174.192C48.1499 173.628 48.2999 172.986 48.2999 172.266C48.2999 171.546 48.1499 170.904 47.8499 170.34C47.5499 169.776 47.1299 169.344 46.5899 169.044C46.0619 168.732 45.4619 168.576 44.7899 168.576C44.1179 168.576 43.5119 168.732 42.9719 169.044C42.4439 169.344 42.0239 169.776 41.7119 170.34C41.4119 170.904 41.2619 171.546 41.2619 172.266C41.2619 172.986 41.4119 173.628 41.7119 174.192C42.0239 174.756 42.4439 175.194 42.9719 175.506C43.5119 175.806 44.1179 175.956 44.7899 175.956ZM61.0753 167.532V175.848C61.0753 177.456 60.6793 178.644 59.8873 179.412C59.1073 180.192 57.9253 180.582 56.3413 180.582C55.4653 180.582 54.6313 180.45 53.8393 180.186C53.0593 179.934 52.4233 179.58 51.9313 179.124L52.5793 178.152C53.0353 178.56 53.5873 178.878 54.2353 179.106C54.8953 179.334 55.5853 179.448 56.3053 179.448C57.5053 179.448 58.3873 179.166 58.9513 178.602C59.5153 178.05 59.7973 177.186 59.7973 176.01V174.804C59.4013 175.404 58.8793 175.86 58.2313 176.172C57.5953 176.484 56.8873 176.64 56.1073 176.64C55.2193 176.64 54.4093 176.448 53.6773 176.064C52.9573 175.668 52.3873 175.122 51.9673 174.426C51.5593 173.718 51.3553 172.92 51.3553 172.032C51.3553 171.144 51.5593 170.352 51.9673 169.656C52.3873 168.96 52.9573 168.42 53.6773 168.036C54.3973 167.652 55.2073 167.46 56.1073 167.46C56.9113 167.46 57.6373 167.622 58.2853 167.946C58.9333 168.27 59.4553 168.738 59.8513 169.35V167.532H61.0753ZM56.2333 175.506C56.9173 175.506 57.5353 175.362 58.0873 175.074C58.6393 174.774 59.0653 174.36 59.3653 173.832C59.6773 173.304 59.8333 172.704 59.8333 172.032C59.8333 171.36 59.6773 170.766 59.3653 170.25C59.0653 169.722 58.6393 169.314 58.0873 169.026C57.5473 168.726 56.9293 168.576 56.2333 168.576C55.5493 168.576 54.9313 168.72 54.3793 169.008C53.8393 169.296 53.4133 169.704 53.1013 170.232C52.8013 170.76 52.6513 171.36 52.6513 172.032C52.6513 172.704 52.8013 173.304 53.1013 173.832C53.4133 174.36 53.8393 174.774 54.3793 175.074C54.9313 175.362 55.5493 175.506 56.2333 175.506ZM73.4679 167.532V175.848C73.4679 177.456 73.0719 178.644 72.2799 179.412C71.4999 180.192 70.3179 180.582 68.7339 180.582C67.8579 180.582 67.0239 180.45 66.2319 180.186C65.4519 179.934 64.8159 179.58 64.3239 179.124L64.9719 178.152C65.4279 178.56 65.9799 178.878 66.6279 179.106C67.2879 179.334 67.9779 179.448 68.6979 179.448C69.8979 179.448 70.7799 179.166 71.3439 178.602C71.9079 178.05 72.1899 177.186 72.1899 176.01V174.804C71.7939 175.404 71.2719 175.86 70.6239 176.172C69.9879 176.484 69.2799 176.64 68.4999 176.64C67.6119 176.64 66.8019 176.448 66.0699 176.064C65.3499 175.668 64.7799 175.122 64.3599 174.426C63.9519 173.718 63.7479 172.92 63.7479 172.032C63.7479 171.144 63.9519 170.352 64.3599 169.656C64.7799 168.96 65.3499 168.42 66.0699 168.036C66.7899 167.652 67.5999 167.46 68.4999 167.46C69.3039 167.46 70.0299 167.622 70.6779 167.946C71.3259 168.27 71.8479 168.738 72.2439 169.35V167.532H73.4679ZM68.6259 175.506C69.3099 175.506 69.9279 175.362 70.4799 175.074C71.0319 174.774 71.4579 174.36 71.7579 173.832C72.0699 173.304 72.2259 172.704 72.2259 172.032C72.2259 171.36 72.0699 170.766 71.7579 170.25C71.4579 169.722 71.0319 169.314 70.4799 169.026C69.9399 168.726 69.3219 168.576 68.6259 168.576C67.9419 168.576 67.3239 168.72 66.7719 169.008C66.2319 169.296 65.8059 169.704 65.4939 170.232C65.1939 170.76 65.0439 171.36 65.0439 172.032C65.0439 172.704 65.1939 173.304 65.4939 173.832C65.8059 174.36 66.2319 174.774 66.7719 175.074C67.3239 175.362 67.9419 175.506 68.6259 175.506ZM81.1264 175.956C81.7144 175.956 82.2544 175.854 82.7464 175.65C83.2504 175.434 83.6764 175.122 84.0244 174.714L84.7444 175.542C84.3244 176.046 83.8024 176.43 83.1784 176.694C82.5544 176.958 81.8644 177.09 81.1084 177.09C80.1364 177.09 79.2724 176.886 78.5164 176.478C77.7604 176.058 77.1724 175.482 76.7524 174.75C76.3324 174.018 76.1224 173.19 76.1224 172.266C76.1224 171.342 76.3204 170.514 76.7164 169.782C77.1244 169.05 77.6824 168.48 78.3904 168.072C79.0984 167.664 79.9024 167.46 80.8024 167.46C81.6424 167.46 82.3984 167.652 83.0704 168.036C83.7544 168.42 84.2944 168.954 84.6904 169.638C85.0984 170.322 85.3144 171.102 85.3384 171.978L77.5624 173.49C77.8024 174.258 78.2344 174.864 78.8584 175.308C79.4944 175.74 80.2504 175.956 81.1264 175.956ZM80.8024 168.558C80.1424 168.558 79.5484 168.714 79.0204 169.026C78.5044 169.326 78.0964 169.752 77.7964 170.304C77.5084 170.844 77.3644 171.468 77.3644 172.176C77.3644 172.356 77.3704 172.488 77.3824 172.572L84.0604 171.276C83.9164 170.484 83.5504 169.836 82.9624 169.332C82.3744 168.816 81.6544 168.558 80.8024 168.558ZM92.3317 167.46C93.2557 167.46 94.0777 167.664 94.7977 168.072C95.5177 168.48 96.0757 169.05 96.4717 169.782C96.8797 170.514 97.0837 171.348 97.0837 172.284C97.0837 173.22 96.8857 174.054 96.4897 174.786C96.0937 175.506 95.5417 176.07 94.8337 176.478C94.1377 176.886 93.3397 177.09 92.4397 177.09C91.6477 177.09 90.9397 176.934 90.3157 176.622C89.7037 176.298 89.2057 175.836 88.8217 175.236V180.492H87.5437V172.302C87.5437 171.354 87.7417 170.514 88.1377 169.782C88.5457 169.05 89.1097 168.48 89.8297 168.072C90.5617 167.664 91.3957 167.46 92.3317 167.46ZM92.2957 175.974C92.9677 175.974 93.5737 175.818 94.1137 175.506C94.6537 175.194 95.0737 174.756 95.3737 174.192C95.6737 173.628 95.8237 172.992 95.8237 172.284C95.8237 171.576 95.6737 170.94 95.3737 170.376C95.0737 169.812 94.6537 169.374 94.1137 169.062C93.5737 168.738 92.9677 168.576 92.2957 168.576C91.6237 168.576 91.0177 168.732 90.4777 169.044C89.9497 169.356 89.5357 169.794 89.2357 170.358C88.9477 170.91 88.8037 171.546 88.8037 172.266C88.8037 172.986 88.9477 173.628 89.2357 174.192C89.5357 174.756 89.9497 175.194 90.4777 175.506C91.0177 175.818 91.6237 175.974 92.2957 175.974ZM107.805 172.788H105.753V177H104.475V172.788H102.423L99.525 177H97.995L101.397 172.122L98.265 167.532H99.651L102.423 171.69H104.475V167.532H105.753V171.69H107.805L110.595 167.532H111.981L108.849 172.14L112.251 177H110.721L107.805 172.788ZM117.816 172.788H115.656V177H114.378V167.532H115.656V171.69H117.834L121.164 167.532H122.55L118.824 172.122L122.82 177H121.308L117.816 172.788ZM133.107 167.532V177H131.883V175.128C131.499 175.764 130.989 176.25 130.353 176.586C129.729 176.922 129.021 177.09 128.229 177.09C127.341 177.09 126.537 176.886 125.817 176.478C125.097 176.07 124.533 175.5 124.125 174.768C123.717 174.036 123.513 173.202 123.513 172.266C123.513 171.33 123.717 170.496 124.125 169.764C124.533 169.032 125.097 168.468 125.817 168.072C126.537 167.664 127.341 167.46 128.229 167.46C128.997 167.46 129.687 167.622 130.299 167.946C130.923 168.258 131.433 168.72 131.829 169.332V167.532H133.107ZM128.337 175.956C128.997 175.956 129.591 175.806 130.119 175.506C130.659 175.194 131.079 174.756 131.379 174.192C131.691 173.628 131.847 172.986 131.847 172.266C131.847 171.546 131.691 170.904 131.379 170.34C131.079 169.776 130.659 169.344 130.119 169.044C129.591 168.732 128.997 168.576 128.337 168.576C127.665 168.576 127.059 168.732 126.519 169.044C125.991 169.344 125.571 169.776 125.259 170.34C124.959 170.904 124.809 171.546 124.809 172.266C124.809 172.986 124.959 173.628 125.259 174.192C125.571 174.756 125.991 175.194 126.519 175.506C127.059 175.806 127.665 175.956 128.337 175.956ZM149.747 167.532V177H148.523V175.272C148.187 175.848 147.725 176.298 147.137 176.622C146.549 176.934 145.877 177.09 145.121 177.09C143.873 177.09 142.889 176.748 142.169 176.064C141.461 175.368 141.107 174.354 141.107 173.022V167.532H142.385V172.896C142.385 173.892 142.631 174.648 143.123 175.164C143.615 175.68 144.323 175.938 145.247 175.938C146.243 175.938 147.029 175.638 147.605 175.038C148.181 174.426 148.469 173.58 148.469 172.5V167.532H149.747ZM164.125 172.104C165.409 172.404 166.051 173.178 166.051 174.426C166.051 175.254 165.745 175.89 165.133 176.334C164.521 176.778 163.609 177 162.397 177H158.095V167.532H162.271C163.351 167.532 164.197 167.742 164.809 168.162C165.421 168.582 165.727 169.182 165.727 169.962C165.727 170.478 165.583 170.922 165.295 171.294C165.019 171.654 164.629 171.924 164.125 172.104ZM159.337 171.744H162.181C162.913 171.744 163.471 171.606 163.855 171.33C164.251 171.054 164.449 170.652 164.449 170.124C164.449 169.596 164.251 169.2 163.855 168.936C163.471 168.672 162.913 168.54 162.181 168.54H159.337V171.744ZM162.343 175.992C163.159 175.992 163.771 175.86 164.179 175.596C164.587 175.332 164.791 174.918 164.791 174.354C164.791 173.79 164.605 173.376 164.233 173.112C163.861 172.836 163.273 172.698 162.469 172.698H159.337V175.992H162.343ZM172.808 177.198C171.512 177.198 170.516 176.88 169.82 176.244C169.136 175.596 168.794 174.684 168.794 173.508V167.532H170.072V171.474C170.36 171.126 170.762 170.838 171.278 170.61C171.794 170.382 172.394 170.268 173.078 170.268C174.23 170.268 175.124 170.568 175.76 171.168C176.408 171.756 176.732 172.56 176.732 173.58C176.732 174.288 176.57 174.918 176.246 175.47C175.934 176.01 175.478 176.436 174.878 176.748C174.29 177.048 173.6 177.198 172.808 177.198ZM178.28 167.532H179.558V177H178.28V167.532ZM172.844 176.208C173.66 176.208 174.296 175.968 174.752 175.488C175.208 174.996 175.436 174.372 175.436 173.616C175.436 172.908 175.202 172.338 174.734 171.906C174.266 171.462 173.606 171.24 172.754 171.24C172.13 171.24 171.584 171.372 171.116 171.636C170.66 171.9 170.312 172.266 170.072 172.734V173.598C170.072 174.414 170.306 175.056 170.774 175.524C171.254 175.98 171.944 176.208 172.844 176.208ZM187.552 167.46C188.476 167.46 189.298 167.664 190.018 168.072C190.738 168.48 191.296 169.05 191.692 169.782C192.1 170.514 192.304 171.348 192.304 172.284C192.304 173.22 192.106 174.054 191.71 174.786C191.314 175.506 190.762 176.07 190.054 176.478C189.358 176.886 188.56 177.09 187.66 177.09C186.868 177.09 186.16 176.934 185.536 176.622C184.924 176.298 184.426 175.836 184.042 175.236V180.492H182.764V172.302C182.764 171.354 182.962 170.514 183.358 169.782C183.766 169.05 184.33 168.48 185.05 168.072C185.782 167.664 186.616 167.46 187.552 167.46ZM187.516 175.974C188.188 175.974 188.794 175.818 189.334 175.506C189.874 175.194 190.294 174.756 190.594 174.192C190.894 173.628 191.044 172.992 191.044 172.284C191.044 171.576 190.894 170.94 190.594 170.376C190.294 169.812 189.874 169.374 189.334 169.062C188.794 168.738 188.188 168.576 187.516 168.576C186.844 168.576 186.238 168.732 185.698 169.044C185.17 169.356 184.756 169.794 184.456 170.358C184.168 170.91 184.024 171.546 184.024 172.266C184.024 172.986 184.168 173.628 184.456 174.192C184.756 174.756 185.17 175.194 185.698 175.506C186.238 175.818 186.844 175.974 187.516 175.974ZM203.558 167.532V175.848C203.558 177.456 203.192 178.644 202.46 179.412C201.728 180.192 200.624 180.582 199.148 180.582C198.32 180.582 197.534 180.45 196.79 180.186C196.058 179.934 195.464 179.58 195.008 179.124L195.656 178.152C196.064 178.56 196.568 178.878 197.168 179.106C197.768 179.334 198.41 179.448 199.094 179.448C200.186 179.448 200.99 179.166 201.506 178.602C202.022 178.05 202.28 177.186 202.28 176.01V174.912C201.944 175.464 201.482 175.89 200.894 176.19C200.318 176.49 199.664 176.64 198.932 176.64C197.696 176.64 196.718 176.298 195.998 175.614C195.29 174.918 194.936 173.904 194.936 172.572V167.532H196.214V172.446C196.214 173.442 196.46 174.198 196.952 174.714C197.444 175.23 198.146 175.488 199.058 175.488C200.054 175.488 200.84 175.188 201.416 174.588C201.992 173.976 202.28 173.13 202.28 172.05V167.532H203.558ZM214.319 167.532V177H213.041V173.058C211.949 173.538 210.875 173.778 209.819 173.778C208.679 173.778 207.791 173.52 207.155 173.004C206.519 172.476 206.201 171.69 206.201 170.646V167.532H207.479V170.574C207.479 171.282 207.707 171.822 208.163 172.194C208.619 172.554 209.249 172.734 210.053 172.734C210.941 172.734 211.937 172.5 213.041 172.032V167.532H214.319ZM221.386 172.788H219.226V177H217.948V167.532H219.226V171.69H221.404L224.734 167.532H226.12L222.394 172.122L226.39 177H224.878L221.386 172.788ZM236.677 167.532V177H235.453V175.128C235.069 175.764 234.559 176.25 233.923 176.586C233.299 176.922 232.591 177.09 231.799 177.09C230.911 177.09 230.107 176.886 229.387 176.478C228.667 176.07 228.103 175.5 227.695 174.768C227.287 174.036 227.083 173.202 227.083 172.266C227.083 171.33 227.287 170.496 227.695 169.764C228.103 169.032 228.667 168.468 229.387 168.072C230.107 167.664 230.911 167.46 231.799 167.46C232.567 167.46 233.257 167.622 233.869 167.946C234.493 168.258 235.003 168.72 235.399 169.332V167.532H236.677ZM231.907 175.956C232.567 175.956 233.161 175.806 233.689 175.506C234.229 175.194 234.649 174.756 234.949 174.192C235.261 173.628 235.417 172.986 235.417 172.266C235.417 171.546 235.261 170.904 234.949 170.34C234.649 169.776 234.229 169.344 233.689 169.044C233.161 168.732 232.567 168.576 231.907 168.576C231.235 168.576 230.629 168.732 230.089 169.044C229.561 169.344 229.141 169.776 228.829 170.34C228.529 170.904 228.379 171.546 228.379 172.266C228.379 172.986 228.529 173.628 228.829 174.192C229.141 174.756 229.561 175.194 230.089 175.506C230.629 175.806 231.235 175.956 231.907 175.956Z" fill="#24252E"/>
<defs>
<clipPath id="clip0_305_686">
<rect width="100" height="100" fill="white" transform="translate(81.3335 20)"/>
</clipPath>
</defs>
</svg>
