<svg width="263" height="224" viewBox="0 0 263 224" fill="none" xmlns="http://www.w3.org/2000/svg">
<rect x="1.1665" y="0.5" width="261" height="223" rx="39.5" fill="#F6FCFF"/>
<rect x="1.1665" y="0.5" width="261" height="223" rx="39.5" stroke="#E2E8F7"/>
<g clip-path="url(#clip0_305_687)">
<path d="M124.167 120C147.639 120 166.667 100.972 166.667 77.5C166.667 54.0279 147.639 35 124.167 35C100.694 35 81.6665 54.0279 81.6665 77.5C81.6665 100.972 100.694 120 124.167 120Z" fill="#A1BCE8"/>
<path d="M180.567 38.6C179.867 37.1 179.066 35.7 177.867 34.6C177.267 34 176.667 33.5 176.067 33.1C175.367 32.6 174.767 32.2 173.967 31.9C173.567 31.7 173.167 31.6 172.767 31.5C171.966 31.3 171.167 31.1 170.267 31C169.767 31 169.367 30.9 168.967 30.9H118.367C111.367 30.9 105.667 36.6 105.667 43.6V77.8C105.667 80.1 107.567 82 109.867 82C112.167 82 114.067 80.1 114.067 77.8L114.167 43.5C114.167 41 115.867 39.3 118.367 39.3H168.867C171.367 39.3 173.067 41 173.067 43.5L173.167 52L173.067 60.6V94.3C173.067 96.6 171.167 98.5 168.867 98.5H118.367C116.067 98.5 114.167 96.6 114.167 94.3V93.3C114.167 91 112.267 89.1 109.967 89.1C107.667 89.1 105.767 91 105.767 93.3V94.3C105.767 101.3 111.467 107 118.467 107H168.967C175.967 107 181.667 101.3 181.667 94.3V43.6C181.567 41.8 181.267 40.1 180.567 38.6Z" fill="#1C303A"/>
<path d="M157.066 64.7H147.866V55.5C147.866 53.2 145.966 51.2 143.566 51.2C141.266 51.2 139.366 53.1 139.366 55.5V64.7H130.166C127.666 64.7 125.666 66.8 125.966 69.4C126.166 71.6 128.166 73.2 130.366 73.2H139.366V82.4C139.366 84.9 141.466 86.9 144.066 86.6C146.266 86.4 147.866 84.4 147.866 82.2V73.2H157.066C159.366 73.2 161.266 71.3 161.266 69C161.266 66.7 159.466 64.7 157.066 64.7Z" fill="#1C303A" fill-opacity="0.5"/>
</g>
<path d="M61.0266 164.4V177H59.7126V171.186H51.8286V177H50.4966V164.4H51.8286V170.016H59.7126V164.4H61.0266ZM73.3078 167.532V177H72.0838V175.272C71.7478 175.848 71.2858 176.298 70.6978 176.622C70.1098 176.934 69.4378 177.09 68.6818 177.09C67.4338 177.09 66.4498 176.748 65.7298 176.064C65.0218 175.368 64.6678 174.354 64.6678 173.022V167.532H65.9458V172.896C65.9458 173.892 66.1918 174.648 66.6838 175.164C67.1758 175.68 67.8838 175.938 68.8078 175.938C69.8038 175.938 70.5898 175.638 71.1658 175.038C71.7418 174.426 72.0298 173.58 72.0298 172.5V167.532H73.3078ZM90.4034 167.532V175.848C90.4034 177.456 90.0074 178.644 89.2154 179.412C88.4354 180.192 87.2534 180.582 85.6694 180.582C84.7934 180.582 83.9594 180.45 83.1674 180.186C82.3874 179.934 81.7514 179.58 81.2594 179.124L81.9074 178.152C82.3634 178.56 82.9154 178.878 83.5634 179.106C84.2234 179.334 84.9134 179.448 85.6334 179.448C86.8334 179.448 87.7154 179.166 88.2794 178.602C88.8434 178.05 89.1254 177.186 89.1254 176.01V174.804C88.7294 175.404 88.2074 175.86 87.5594 176.172C86.9234 176.484 86.2154 176.64 85.4354 176.64C84.5474 176.64 83.7374 176.448 83.0054 176.064C82.2854 175.668 81.7154 175.122 81.2954 174.426C80.8874 173.718 80.6834 172.92 80.6834 172.032C80.6834 171.144 80.8874 170.352 81.2954 169.656C81.7154 168.96 82.2854 168.42 83.0054 168.036C83.7254 167.652 84.5354 167.46 85.4354 167.46C86.2394 167.46 86.9654 167.622 87.6134 167.946C88.2614 168.27 88.7834 168.738 89.1794 169.35V167.532H90.4034ZM85.5614 175.506C86.2454 175.506 86.8634 175.362 87.4154 175.074C87.9674 174.774 88.3934 174.36 88.6934 173.832C89.0054 173.304 89.1614 172.704 89.1614 172.032C89.1614 171.36 89.0054 170.766 88.6934 170.25C88.3934 169.722 87.9674 169.314 87.4154 169.026C86.8754 168.726 86.2574 168.576 85.5614 168.576C84.8774 168.576 84.2594 168.72 83.7074 169.008C83.1674 169.296 82.7414 169.704 82.4294 170.232C82.1294 170.76 81.9794 171.36 81.9794 172.032C81.9794 172.704 82.1294 173.304 82.4294 173.832C82.7414 174.36 83.1674 174.774 83.7074 175.074C84.2594 175.362 84.8774 175.506 85.5614 175.506ZM94.048 167.532H95.326V171.726H101.284V167.532H102.562V177H101.284V172.824H95.326V177H94.048V167.532ZM113.466 167.532V177H112.296V173.868H109.326H108.966L106.77 177H105.384L107.742 173.688C107.01 173.484 106.446 173.136 106.05 172.644C105.654 172.152 105.456 171.528 105.456 170.772C105.456 169.716 105.816 168.912 106.536 168.36C107.256 167.808 108.24 167.532 109.488 167.532H113.466ZM106.752 170.808C106.752 172.212 107.646 172.914 109.434 172.914H112.296V168.666H109.524C107.676 168.666 106.752 169.38 106.752 170.808ZM126.411 167.766C127.287 167.766 128.067 167.964 128.751 168.36C129.447 168.744 129.987 169.29 130.371 169.998C130.755 170.694 130.947 171.492 130.947 172.392C130.947 173.316 130.743 174.138 130.335 174.858C129.939 175.566 129.381 176.118 128.661 176.514C127.941 176.91 127.113 177.108 126.177 177.108C124.605 177.108 123.387 176.556 122.523 175.452C121.659 174.348 121.227 172.824 121.227 170.88C121.227 168.852 121.611 167.298 122.379 166.218C123.159 165.138 124.371 164.406 126.015 164.022L130.263 163.05L130.479 164.22L126.483 165.138C125.127 165.438 124.131 165.972 123.495 166.74C122.859 167.496 122.511 168.618 122.451 170.106C122.835 169.374 123.369 168.804 124.053 168.396C124.737 167.976 125.523 167.766 126.411 167.766ZM126.213 176.046C126.873 176.046 127.461 175.896 127.977 175.596C128.505 175.284 128.913 174.852 129.201 174.3C129.501 173.748 129.651 173.124 129.651 172.428C129.651 171.732 129.507 171.12 129.219 170.592C128.931 170.064 128.523 169.656 127.995 169.368C127.479 169.068 126.885 168.918 126.213 168.918C125.541 168.918 124.941 169.068 124.413 169.368C123.897 169.656 123.489 170.064 123.189 170.592C122.901 171.12 122.757 171.732 122.757 172.428C122.757 173.124 122.901 173.748 123.189 174.3C123.489 174.852 123.903 175.284 124.431 175.596C124.959 175.896 125.553 176.046 126.213 176.046ZM137.701 175.956C138.289 175.956 138.829 175.854 139.321 175.65C139.825 175.434 140.251 175.122 140.599 174.714L141.319 175.542C140.899 176.046 140.377 176.43 139.753 176.694C139.129 176.958 138.439 177.09 137.683 177.09C136.711 177.09 135.847 176.886 135.091 176.478C134.335 176.058 133.747 175.482 133.327 174.75C132.907 174.018 132.697 173.19 132.697 172.266C132.697 171.342 132.895 170.514 133.291 169.782C133.699 169.05 134.257 168.48 134.965 168.072C135.673 167.664 136.477 167.46 137.377 167.46C138.217 167.46 138.973 167.652 139.645 168.036C140.329 168.42 140.869 168.954 141.265 169.638C141.673 170.322 141.889 171.102 141.913 171.978L134.137 173.49C134.377 174.258 134.809 174.864 135.433 175.308C136.069 175.74 136.825 175.956 137.701 175.956ZM137.377 168.558C136.717 168.558 136.123 168.714 135.595 169.026C135.079 169.326 134.671 169.752 134.371 170.304C134.083 170.844 133.939 171.468 133.939 172.176C133.939 172.356 133.945 172.488 133.957 172.572L140.635 171.276C140.491 170.484 140.125 169.836 139.537 169.332C138.949 168.816 138.229 168.558 137.377 168.558ZM148.894 172.068C149.566 172.224 150.082 172.494 150.442 172.878C150.814 173.262 151 173.73 151 174.282C151 174.834 150.808 175.326 150.424 175.758C150.052 176.19 149.542 176.526 148.894 176.766C148.246 176.994 147.532 177.108 146.752 177.108C146.068 177.108 145.396 177.012 144.736 176.82C144.076 176.616 143.5 176.322 143.008 175.938L143.44 174.984C143.872 175.308 144.376 175.56 144.952 175.74C145.528 175.92 146.11 176.01 146.698 176.01C147.574 176.01 148.288 175.848 148.84 175.524C149.404 175.188 149.686 174.738 149.686 174.174C149.686 173.67 149.458 173.28 149.002 173.004C148.546 172.716 147.922 172.572 147.13 172.572H145.51V171.636H147.058C147.766 171.636 148.336 171.504 148.768 171.24C149.2 170.964 149.416 170.598 149.416 170.142C149.416 169.638 149.17 169.242 148.678 168.954C148.198 168.666 147.568 168.522 146.788 168.522C145.768 168.522 144.76 168.78 143.764 169.296L143.404 168.306C144.532 167.718 145.702 167.424 146.914 167.424C147.634 167.424 148.282 167.532 148.858 167.748C149.446 167.952 149.902 168.246 150.226 168.63C150.562 169.014 150.73 169.458 150.73 169.962C150.73 170.442 150.562 170.868 150.226 171.24C149.902 171.612 149.458 171.888 148.894 172.068ZM158.612 167.532H159.89V171.726H165.848V167.532H167.126V177H165.848V172.824H159.89V177H158.612V167.532ZM174.665 177.09C173.753 177.09 172.931 176.886 172.199 176.478C171.467 176.058 170.891 175.482 170.471 174.75C170.051 174.018 169.841 173.19 169.841 172.266C169.841 171.342 170.051 170.514 170.471 169.782C170.891 169.05 171.467 168.48 172.199 168.072C172.931 167.664 173.753 167.46 174.665 167.46C175.577 167.46 176.399 167.664 177.131 168.072C177.863 168.48 178.433 169.05 178.841 169.782C179.261 170.514 179.471 171.342 179.471 172.266C179.471 173.19 179.261 174.018 178.841 174.75C178.433 175.482 177.863 176.058 177.131 176.478C176.399 176.886 175.577 177.09 174.665 177.09ZM174.665 175.956C175.337 175.956 175.937 175.806 176.465 175.506C177.005 175.194 177.425 174.756 177.725 174.192C178.025 173.628 178.175 172.986 178.175 172.266C178.175 171.546 178.025 170.904 177.725 170.34C177.425 169.776 177.005 169.344 176.465 169.044C175.937 168.732 175.337 168.576 174.665 168.576C173.993 168.576 173.387 168.732 172.847 169.044C172.319 169.344 171.899 169.776 171.587 170.34C171.287 170.904 171.137 171.546 171.137 172.266C171.137 172.986 171.287 173.628 171.587 174.192C171.899 174.756 172.319 175.194 172.847 175.506C173.387 175.806 173.993 175.956 174.665 175.956ZM188.232 172.104C189.516 172.404 190.158 173.178 190.158 174.426C190.158 175.254 189.852 175.89 189.24 176.334C188.628 176.778 187.716 177 186.504 177H182.202V167.532H186.378C187.458 167.532 188.304 167.742 188.916 168.162C189.528 168.582 189.834 169.182 189.834 169.962C189.834 170.478 189.69 170.922 189.402 171.294C189.126 171.654 188.736 171.924 188.232 172.104ZM183.444 171.744H186.288C187.02 171.744 187.578 171.606 187.962 171.33C188.358 171.054 188.556 170.652 188.556 170.124C188.556 169.596 188.358 169.2 187.962 168.936C187.578 168.672 187.02 168.54 186.288 168.54H183.444V171.744ZM186.45 175.992C187.266 175.992 187.878 175.86 188.286 175.596C188.694 175.332 188.898 174.918 188.898 174.354C188.898 173.79 188.712 173.376 188.34 173.112C187.968 172.836 187.38 172.698 186.576 172.698H183.444V175.992H186.45ZM196.915 177.198C195.619 177.198 194.623 176.88 193.927 176.244C193.243 175.596 192.901 174.684 192.901 173.508V167.532H194.179V171.474C194.467 171.126 194.869 170.838 195.385 170.61C195.901 170.382 196.501 170.268 197.185 170.268C198.337 170.268 199.231 170.568 199.867 171.168C200.515 171.756 200.839 172.56 200.839 173.58C200.839 174.288 200.677 174.918 200.353 175.47C200.041 176.01 199.585 176.436 198.985 176.748C198.397 177.048 197.707 177.198 196.915 177.198ZM202.387 167.532H203.665V177H202.387V167.532ZM196.951 176.208C197.767 176.208 198.403 175.968 198.859 175.488C199.315 174.996 199.543 174.372 199.543 173.616C199.543 172.908 199.309 172.338 198.841 171.906C198.373 171.462 197.713 171.24 196.861 171.24C196.237 171.24 195.691 171.372 195.223 171.636C194.767 171.9 194.419 172.266 194.179 172.734V173.598C194.179 174.414 194.413 175.056 194.881 175.524C195.361 175.98 196.051 176.208 196.951 176.208ZM213.226 177L210.22 173.04L207.196 177H205.756L209.5 172.14L205.936 167.532H207.376L210.22 171.24L213.064 167.532H214.468L210.904 172.14L214.684 177H213.226ZM103.068 194.068C103.74 194.224 104.256 194.494 104.616 194.878C104.988 195.262 105.174 195.73 105.174 196.282C105.174 196.834 104.982 197.326 104.598 197.758C104.226 198.19 103.716 198.526 103.068 198.766C102.42 198.994 101.706 199.108 100.926 199.108C100.242 199.108 99.5701 199.012 98.9101 198.82C98.2501 198.616 97.6741 198.322 97.1821 197.938L97.6141 196.984C98.0461 197.308 98.5501 197.56 99.1261 197.74C99.7021 197.92 100.284 198.01 100.872 198.01C101.748 198.01 102.462 197.848 103.014 197.524C103.578 197.188 103.86 196.738 103.86 196.174C103.86 195.67 103.632 195.28 103.176 195.004C102.72 194.716 102.096 194.572 101.304 194.572H99.6841V193.636H101.232C101.94 193.636 102.51 193.504 102.942 193.24C103.374 192.964 103.59 192.598 103.59 192.142C103.59 191.638 103.344 191.242 102.852 190.954C102.372 190.666 101.742 190.522 100.962 190.522C99.9421 190.522 98.9341 190.78 97.9381 191.296L97.5781 190.306C98.7061 189.718 99.8761 189.424 101.088 189.424C101.808 189.424 102.456 189.532 103.032 189.748C103.62 189.952 104.076 190.246 104.4 190.63C104.736 191.014 104.904 191.458 104.904 191.962C104.904 192.442 104.736 192.868 104.4 193.24C104.076 193.612 103.632 193.888 103.068 194.068ZM108.075 189.532H109.353V193.726H115.311V189.532H116.589V199H115.311V194.824H109.353V199H108.075V189.532ZM128.826 189.532V199H127.602V197.128C127.218 197.764 126.708 198.25 126.072 198.586C125.448 198.922 124.74 199.09 123.948 199.09C123.06 199.09 122.256 198.886 121.536 198.478C120.816 198.07 120.252 197.5 119.844 196.768C119.436 196.036 119.232 195.202 119.232 194.266C119.232 193.33 119.436 192.496 119.844 191.764C120.252 191.032 120.816 190.468 121.536 190.072C122.256 189.664 123.06 189.46 123.948 189.46C124.716 189.46 125.406 189.622 126.018 189.946C126.642 190.258 127.152 190.72 127.548 191.332V189.532H128.826ZM124.056 197.956C124.716 197.956 125.31 197.806 125.838 197.506C126.378 197.194 126.798 196.756 127.098 196.192C127.41 195.628 127.566 194.986 127.566 194.266C127.566 193.546 127.41 192.904 127.098 192.34C126.798 191.776 126.378 191.344 125.838 191.044C125.31 190.732 124.716 190.576 124.056 190.576C123.384 190.576 122.778 190.732 122.238 191.044C121.71 191.344 121.29 191.776 120.978 192.34C120.678 192.904 120.528 193.546 120.528 194.266C120.528 194.986 120.678 195.628 120.978 196.192C121.29 196.756 121.71 197.194 122.238 197.506C122.778 197.806 123.384 197.956 124.056 197.956ZM132.421 189.532H133.699V193.726H139.657V189.532H140.935V199H139.657V194.824H133.699V199H132.421V189.532ZM152.902 189.532V199H151.678V197.272C151.342 197.848 150.88 198.298 150.292 198.622C149.704 198.934 149.032 199.09 148.276 199.09C147.028 199.09 146.044 198.748 145.324 198.064C144.616 197.368 144.262 196.354 144.262 195.022V189.532H145.54V194.896C145.54 195.892 145.786 196.648 146.278 197.164C146.77 197.68 147.478 197.938 148.402 197.938C149.398 197.938 150.184 197.638 150.76 197.038C151.336 196.426 151.624 195.58 151.624 194.5V189.532H152.902ZM164.872 189.532V199H163.648V197.272C163.312 197.848 162.85 198.298 162.262 198.622C161.674 198.934 161.002 199.09 160.246 199.09C158.998 199.09 158.014 198.748 157.294 198.064C156.586 197.368 156.232 196.354 156.232 195.022V189.532H157.51V194.896C157.51 195.892 157.756 196.648 158.248 197.164C158.74 197.68 159.448 197.938 160.372 197.938C161.368 197.938 162.154 197.638 162.73 197.038C163.306 196.426 163.594 195.58 163.594 194.5V189.532H164.872ZM160.552 188.182C159.736 188.182 159.088 187.978 158.608 187.57C158.128 187.162 157.882 186.586 157.87 185.842H158.788C158.8 186.31 158.968 186.688 159.292 186.976C159.616 187.252 160.036 187.39 160.552 187.39C161.068 187.39 161.488 187.252 161.812 186.976C162.148 186.688 162.322 186.31 162.334 185.842H163.252C163.24 186.586 162.988 187.162 162.496 187.57C162.016 187.978 161.368 188.182 160.552 188.182Z" fill="#24252E"/>
<defs>
<clipPath id="clip0_305_687">
<rect width="100" height="100" fill="white" transform="translate(81.6665 20)"/>
</clipPath>
</defs>
</svg>
