<svg width="554" height="497" viewBox="0 0 554 497" fill="none" xmlns="http://www.w3.org/2000/svg">
<path d="M487.235 208.228H468.986V218.131H487.235V208.228Z" fill="#CED5DD"/>
<path d="M448.202 163.262L444.491 172.136L460.845 181.722L464.556 172.848L448.202 163.262Z" fill="#CED5DD"/>
<path d="M432.008 201.987L428.297 210.861L444.651 220.447L448.362 211.573L432.008 201.987Z" fill="#CED5DD"/>
<path d="M247.65 272.497C248.412 273.017 249.139 273.607 249.824 274.262L325.125 246.518L329.371 224.399L358.403 227.623L354.1 267.645C353.752 270.878 352.528 273.89 350.612 276.23C348.695 278.569 346.189 280.109 343.47 280.619L254.852 297.23C253.559 300.94 251.343 304.096 248.498 306.278C245.654 308.46 242.315 309.565 238.927 309.446C235.538 309.327 232.261 307.99 229.531 305.612C226.8 303.234 224.746 299.928 223.641 296.134C222.536 292.34 222.433 288.237 223.345 284.372C224.258 280.507 226.143 277.063 228.749 274.497C231.355 271.931 234.56 270.365 237.936 270.008C241.312 269.651 244.7 270.519 247.65 272.497Z" fill="#F9D7DA"/>
<path d="M371.82 240.892L371.321 230.798V230.788L369.715 198.304C370.155 192.108 368.504 185.958 365.122 181.2C361.741 176.442 356.905 173.464 351.673 172.919C350.168 172.759 348.653 172.806 347.157 173.059C342.713 173.803 338.612 176.303 335.518 180.152C332.424 184.002 330.52 188.976 330.114 194.268L327.061 209.309L321.723 235.615C321.345 237.455 321.502 239.393 322.168 241.115C322.834 242.838 323.971 244.244 325.395 245.108C326.217 245.62 327.116 245.933 328.042 246.029L336.94 246.97L355.395 248.913L356.106 248.983L357.932 249.183L364.047 249.824H364.064C365.086 249.922 366.113 249.762 367.078 249.354C368.044 248.947 368.925 248.302 369.664 247.461C370.202 246.84 370.656 246.124 371.008 245.338C371.625 243.975 371.907 242.435 371.82 240.892Z" fill="#A1BCE8"/>
<path d="M454.452 118.497C454.452 152.769 427.685 147.585 394.666 147.585C361.647 147.585 334.881 152.769 334.881 118.497C334.881 84.2243 347.956 23.474 394.666 23.474C442.986 23.474 454.452 84.2243 454.452 118.497Z" fill="#24252E"/>
<path d="M422.913 133.578C438.624 114.977 438.624 84.8196 422.913 66.2191C407.202 47.6185 381.73 47.6186 366.019 66.2191C350.308 84.8196 350.308 114.977 366.019 133.578C381.73 152.178 407.202 152.178 422.913 133.578Z" fill="#F9D7DA"/>
<path d="M451.098 167.551C450.323 166.668 449.501 165.845 448.637 165.088C443.167 160.196 436.293 158.042 429.496 159.09L355.361 170.195C348.57 171.193 342.375 175.283 338.088 181.598C333.802 187.912 331.76 195.955 332.398 204.021C332.609 206.825 332.846 209.779 333.108 212.854C333.447 216.709 333.827 220.754 334.267 224.94C334.994 231.98 335.882 239.41 336.94 246.97C337.861 253.479 338.91 260.078 340.111 266.597C340.458 268.48 340.819 270.356 341.194 272.225C341.193 272.23 341.194 272.236 341.195 272.241C341.197 272.246 341.199 272.251 341.202 272.255C341.245 272.485 341.287 272.716 341.338 272.936C341.335 272.953 341.338 272.971 341.346 272.986C341.871 275.59 342.421 278.163 342.996 280.707C343.215 281.648 343.427 282.579 343.647 283.5C344.239 286.004 344.865 288.457 345.508 290.871C350.337 308.825 356.723 324.116 365.156 332.247C365.265 332.367 365.376 332.468 365.494 332.578L365.832 332.888L366.323 332.708L368.403 331.977L370.18 331.336L417.587 314.443H417.595L434.52 308.415L436.584 307.674L451.123 302.496L451.588 296.068L455.53 241.973L459.108 192.766C459.453 188.121 458.913 183.444 457.526 179.079C456.14 174.715 453.943 170.775 451.098 167.551Z" fill="#24252E"/>
<path d="M492.551 363.21C492.356 362.539 492.17 361.868 491.975 361.207C483.281 331.166 470.458 308.445 451.588 296.068C451.58 296.068 451.58 296.058 451.571 296.058L451.25 295.847L432.778 303.418L430.663 304.289L430.638 304.299L415.244 310.608L415.219 310.618L403.141 315.564H403.132L391.959 320.141H391.951L389.354 321.212L367.557 330.144L365.528 330.976L365.215 331.106L365.156 332.247L363.76 361.207L363.667 363.21L361.925 399.349L304.063 496.393H343.647C356.91 496.396 370.154 495.201 383.264 492.818L420.403 445.433C420.714 445.051 421.108 444.777 421.541 444.641C421.974 444.505 422.43 444.512 422.86 444.66C423.29 444.809 423.678 445.093 423.981 445.484C424.285 445.874 424.493 446.355 424.582 446.875L430.037 478.919C456.913 467.667 482.055 451.289 504.468 430.432C501.863 405.548 498.057 382.867 492.551 363.21Z" fill="#24252E"/>
<path d="M347.984 95.2257H363.896L370.916 71.9549L372.319 95.2257H379.924L384.019 81.6511L384.838 95.2257H441.348C441.348 88.6045 440.247 82.048 438.106 75.9308C435.966 69.8135 432.829 64.2553 428.875 59.5734C424.92 54.8914 420.225 51.1775 415.058 48.6436C409.892 46.1098 404.354 44.8056 398.761 44.8056H390.571C379.276 44.8056 368.444 50.1178 360.458 59.5734C352.471 69.029 347.984 81.8535 347.984 95.2257Z" fill="#24252E"/>
<path d="M250.112 347.576C247.514 348.868 244.709 349.47 241.893 349.34C239.078 349.21 236.321 348.35 233.816 346.822C231.311 345.293 229.12 343.133 227.397 340.494C225.674 337.855 224.46 334.8 223.842 331.545L155.784 322.42L178.598 290.075L239.729 303.7C244.416 302.832 249.209 304.031 253.2 307.068C257.191 310.105 260.102 314.77 261.381 320.178C262.661 325.586 262.221 331.362 260.144 336.412C258.067 341.462 254.498 345.434 250.112 347.576Z" fill="#FBBDAA"/>
<path d="M213.418 287.706L184.652 281.618L182.564 281.177C180.894 280.824 179.307 280.057 177.906 278.926C176.504 277.795 175.321 276.326 174.434 274.615C173.546 272.904 172.975 270.99 172.756 268.999C172.538 267.008 172.678 264.985 173.167 263.062L187.291 207.496L187.714 205.844C189.478 198.781 189.164 191.219 186.824 184.395C184.483 177.571 180.256 171.89 174.833 168.282C171.162 165.869 167.07 164.491 162.876 164.255C158.682 164.018 154.499 164.931 150.651 166.921C146.803 168.911 143.395 171.925 140.692 175.728C137.988 179.532 136.062 184.022 135.063 188.851L117.048 275.9L116.379 279.124C115.121 285.199 114.984 291.522 115.977 297.665C116.97 303.807 119.071 309.624 122.135 314.718C125.199 319.813 129.155 324.065 133.733 327.185C138.311 330.305 143.404 332.22 148.664 332.798C148.723 332.808 148.774 332.808 148.833 332.818L159.617 333.95L191.199 337.274L207.616 339.007C209.767 339.237 211.912 338.503 213.626 336.948C215.34 335.394 216.498 333.133 216.869 330.615C216.895 330.475 216.912 330.335 216.928 330.195L220.413 299.392L220.447 299.112C220.748 296.504 220.184 293.859 218.873 291.733C217.563 289.607 215.608 288.164 213.418 287.706Z" fill="#CED5DD"/>
<path d="M169.1 54.3176C157.616 81.0472 148.566 108.616 123.237 108.616C111.073 108.616 99.4077 102.896 90.8068 92.7126C82.2058 82.5296 77.3738 68.7185 77.3738 54.3176C77.3738 24.3294 97.9091 0.394472 123.237 0.0190271C148.979 -0.362577 190.473 4.56581 169.1 54.3176Z" fill="#24252E"/>
<path d="M197.906 403.996L196.866 391.699L196.088 391.749L59.3297 399.55L59.6849 411.997L60.2858 433.316C81.447 452.4 104.947 467.546 129.971 478.228L130.86 470.076C130.937 469.412 131.206 468.8 131.621 468.344C132.036 467.888 132.572 467.615 133.137 467.573C133.702 467.53 134.263 467.721 134.723 468.111C135.183 468.502 135.516 469.069 135.663 469.716L138.362 481.622C160.161 489.945 182.799 494.798 205.679 496.052L197.906 403.996Z" fill="#24252E"/>
<path d="M153.941 95.7233C169.652 77.1227 169.652 46.9653 153.941 28.3648C138.23 9.76426 112.758 9.76426 97.0469 28.3648C81.336 46.9653 81.336 77.1227 97.0469 95.7233C112.758 114.324 138.23 114.324 153.941 95.7233Z" fill="#FBBDAA"/>
<path d="M205.764 392.53L197.788 363.21L197.247 361.207L194.971 352.856C194.235 350.142 193.533 347.418 192.882 344.684C192.282 342.221 191.721 339.751 191.199 337.274C190.455 333.83 189.778 330.371 189.169 326.9C187.105 315.234 185.729 303.413 185.05 291.521C184.864 288.227 184.731 284.926 184.652 281.618C184.157 261.343 185.699 241.07 189.245 221.225C192.333 204.065 190.684 186.184 184.541 170.217C178.398 154.25 168.087 141.04 155.126 132.533C146.62 126.968 137.207 123.625 127.519 122.73C126.85 122.67 126.182 122.62 125.506 122.57C115.271 121.804 105.023 123.77 95.5159 128.321C86.0092 132.872 77.4872 139.893 70.5791 148.866C66.8791 153.638 63.6654 158.908 61.0043 164.567C53.6209 180.317 50.8491 198.518 53.1216 216.328L62.6282 291.902L55.0499 403.185C54.9209 405.048 55.3019 406.911 56.1367 408.498C56.9714 410.085 58.2155 411.312 59.6849 411.997C60.5455 412.405 61.4646 412.612 62.3916 412.608C62.5271 412.608 62.6538 412.608 62.7893 412.598L197.906 403.996L199.141 403.916C200.268 403.846 201.367 403.471 202.352 402.819C203.337 402.167 204.182 401.255 204.822 400.155C205.462 399.055 205.88 397.795 206.044 396.472C206.207 395.15 206.111 393.801 205.764 392.53Z" fill="#CED5DD"/>
<path d="M168.184 35.1263C158.991 42.6279 148.08 46.6203 136.914 46.5675C140.897 49.837 145.431 52.0454 150.204 53.0407C135.359 56.8107 120.017 56.9127 105.137 53.3405C101.83 52.7126 98.6384 51.4149 95.703 49.5042C92.846 47.4509 90.456 44.1814 89.8797 40.2837C88.891 33.5962 93.2924 27.5205 97.8664 23.4258C104.87 17.2521 112.944 12.9987 121.506 10.973C130.068 8.94742 138.904 9.20031 147.373 11.7134C152.903 13.4058 158.443 16.2653 162.035 21.5234C165.627 26.7814 166.691 34.8876 163.269 40.302L168.184 35.1263Z" fill="#24252E"/>
<path d="M170.241 337.667C167.668 339.026 164.874 339.7 162.056 339.642C159.239 339.584 156.467 338.795 153.935 337.331C151.403 335.867 149.173 333.764 147.402 331.169C145.631 328.575 144.361 325.552 143.684 322.314L75.4748 314.935L97.6919 282.013L159.058 294.068C163.728 293.08 168.542 294.156 172.587 297.09C176.633 300.024 179.628 304.613 181.007 309.987C182.385 315.361 182.051 321.147 180.066 326.249C178.082 331.351 174.586 335.413 170.241 337.667Z" fill="#FBBDAA"/>
<path d="M132.467 278.754L117.048 275.9L101.493 273.016C99.8179 272.706 98.2171 271.98 96.7957 270.886C95.3743 269.792 94.1646 268.354 93.2459 266.666C92.3273 264.979 91.7206 263.081 91.4656 261.096C91.2106 259.112 91.3131 257.086 91.7664 255.152L105.265 197.573C106.899 190.466 106.446 182.914 103.982 176.152C101.517 169.39 97.1864 163.819 91.6987 160.352C87.9916 158.01 83.8747 156.723 79.6745 156.593C75.4742 156.462 71.306 157.492 67.5004 159.6C63.683 161.676 60.3248 164.772 57.6902 168.645C55.0556 172.518 53.2165 177.063 52.318 181.921L35.2921 272.656C34.1451 278.776 34.1286 285.118 35.2435 291.246C36.3584 297.375 38.5785 303.147 41.7519 308.165C44.9252 313.184 48.9769 317.332 53.6298 320.325C58.2826 323.319 63.4267 325.087 68.71 325.508L127.603 330.185C129.757 330.359 131.887 329.569 133.572 327.972C135.257 326.376 136.375 324.088 136.704 321.563C136.729 321.423 136.738 321.282 136.755 321.142L139.673 290.26L139.698 289.979C139.95 287.365 139.337 284.737 137.99 282.645C136.642 280.552 134.663 279.158 132.467 278.754Z" fill="#CED5DD"/>
<path d="M393.377 230.888L342.834 263.538C341.122 264.647 339.851 266.515 339.3 268.733C338.749 270.95 338.964 273.335 339.897 275.366L372.279 345.63C373.216 347.657 374.794 349.162 376.667 349.814C378.54 350.466 380.555 350.212 382.269 349.107L382.278 349.101L432.803 316.463L432.812 316.457C434.525 315.348 435.796 313.48 436.347 311.262C436.897 309.045 436.683 306.659 435.749 304.629L403.368 234.365C402.431 232.337 400.853 230.833 398.98 230.181C397.107 229.529 395.092 229.783 393.377 230.888Z" fill="#7F7F7F"/>
<path d="M394.393 233.091L343.85 265.741C342.63 266.531 341.725 267.861 341.333 269.44C340.941 271.019 341.094 272.718 341.758 274.164L374.14 344.428C374.807 345.872 375.931 346.943 377.264 347.408C378.598 347.872 380.033 347.691 381.254 346.904L381.263 346.898L431.797 314.254C433.017 313.464 433.922 312.134 434.314 310.555C434.706 308.976 434.553 307.277 433.889 305.831L401.507 235.567C400.84 234.123 399.716 233.051 398.382 232.587C397.049 232.123 395.614 232.304 394.393 233.091Z" fill="white"/>
<path d="M395.579 252.929C395.422 252.591 395.159 252.341 394.847 252.232C394.535 252.124 394.199 252.165 393.913 252.348L392.23 253.439L375.069 264.524C374.784 264.71 374.574 265.022 374.483 265.39C374.393 265.759 374.429 266.156 374.584 266.493C374.739 266.83 375.001 267.081 375.312 267.191C375.623 267.3 375.958 267.26 376.244 267.078L395.089 254.901C395.373 254.715 395.585 254.404 395.677 254.034C395.768 253.665 395.733 253.268 395.579 252.929Z" fill="#7F7F7F"/>
<path d="M401.999 254.361C401.922 254.193 401.818 254.046 401.693 253.927C401.568 253.807 401.425 253.719 401.271 253.665C401.116 253.612 400.955 253.596 400.795 253.617C400.636 253.639 400.481 253.697 400.341 253.79L377.056 268.83C376.915 268.922 376.79 269.045 376.689 269.194C376.589 269.342 376.514 269.512 376.468 269.695C376.423 269.878 376.409 270.069 376.426 270.259C376.444 270.448 376.492 270.631 376.57 270.798C376.647 270.965 376.751 271.113 376.876 271.232C377.002 271.351 377.146 271.44 377.3 271.494C377.454 271.547 377.616 271.564 377.776 271.543C377.936 271.523 378.091 271.465 378.232 271.374L386.089 266.297H386.098L401.508 256.333C401.651 256.243 401.777 256.12 401.879 255.972C401.981 255.823 402.057 255.652 402.103 255.469C402.149 255.285 402.163 255.092 402.145 254.902C402.127 254.712 402.077 254.528 401.999 254.361Z" fill="#7F7F7F"/>
<path d="M376.692 278.333L369.3 262.281C369.223 262.12 369.096 262.001 368.945 261.951C368.795 261.9 368.634 261.922 368.497 262.011L351.124 273.226C350.988 273.317 350.887 273.468 350.845 273.647C350.802 273.825 350.82 274.015 350.895 274.178L351.369 275.209L358.288 290.23C358.363 290.39 358.489 290.509 358.638 290.559C358.787 290.61 358.947 290.589 359.083 290.5L376.455 279.285C376.524 279.241 376.585 279.182 376.634 279.11C376.683 279.038 376.72 278.956 376.742 278.868C376.764 278.779 376.771 278.686 376.762 278.595C376.754 278.503 376.73 278.414 376.692 278.333Z" fill="#7F7F7F"/>
<path d="M404.925 273.296C404.77 272.96 404.508 272.709 404.198 272.6C403.887 272.492 403.552 272.533 403.267 272.716L377.707 289.228C377.481 289.375 377.3 289.601 377.19 289.876C377.079 290.151 377.044 290.461 377.09 290.76C377.108 290.916 377.151 291.065 377.217 291.201C377.281 291.339 377.364 291.464 377.462 291.572L377.47 291.582C377.66 291.783 377.897 291.91 378.15 291.946C378.403 291.982 378.659 291.925 378.883 291.782L404.443 275.269C404.585 275.177 404.709 275.053 404.81 274.905C404.911 274.756 404.986 274.585 405.03 274.401C405.075 274.218 405.089 274.026 405.071 273.837C405.053 273.647 405.003 273.463 404.925 273.296Z" fill="#7F7F7F"/>
<path d="M411.353 274.728C411.276 274.561 411.171 274.414 411.045 274.295C410.919 274.176 410.775 274.087 410.62 274.034C410.465 273.981 410.303 273.965 410.143 273.986C409.983 274.007 409.828 274.066 409.687 274.158L379.687 293.534C379.461 293.675 379.279 293.898 379.168 294.17C379.057 294.442 379.022 294.749 379.069 295.046V295.056C379.087 295.212 379.13 295.361 379.196 295.497C379.261 295.64 379.347 295.769 379.45 295.877C379.637 296.083 379.875 296.214 380.128 296.249C380.382 296.285 380.639 296.225 380.862 296.078L410.863 276.701C411.148 276.516 411.36 276.204 411.452 275.835C411.544 275.465 411.508 275.067 411.353 274.728Z" fill="#7F7F7F"/>
<path d="M369.146 305.301C372.019 305.301 374.348 302.544 374.348 299.143C374.348 295.741 372.019 292.984 369.146 292.984C366.273 292.984 363.944 295.741 363.944 299.143C363.944 302.544 366.273 305.301 369.146 305.301Z" fill="#7F7F7F"/>
<path d="M408.602 203.851L358.059 236.501C356.346 237.61 355.075 239.478 354.524 241.696C353.974 243.913 354.189 246.298 355.122 248.329L387.503 318.593C388.44 320.62 390.018 322.125 391.891 322.777C393.764 323.429 395.779 323.175 397.494 322.07L397.503 322.064L448.028 289.426L448.037 289.42C449.75 288.311 451.021 286.442 451.571 284.225C452.122 282.008 451.907 279.622 450.974 277.592L418.592 207.328C417.655 205.3 416.077 203.796 414.204 203.144C412.332 202.492 410.317 202.746 408.602 203.851Z" fill="#CED5DD"/>
<path d="M409.617 206.054L359.074 238.704C357.854 239.494 356.949 240.824 356.557 242.403C356.165 243.982 356.318 245.681 356.983 247.127L389.364 317.391C390.031 318.835 391.155 319.906 392.489 320.37C393.823 320.835 395.257 320.654 396.479 319.867L396.488 319.861L447.022 287.217C448.241 286.427 449.146 285.097 449.539 283.518C449.931 281.939 449.778 280.24 449.113 278.794L416.732 208.53C416.064 207.086 414.941 206.014 413.607 205.55C412.273 205.086 410.838 205.267 409.617 206.054Z" fill="white"/>
<path d="M410.804 225.891C410.647 225.554 410.383 225.304 410.071 225.195C409.759 225.087 409.424 225.128 409.137 225.311L390.293 237.487C390.009 237.673 389.799 237.984 389.708 238.353C389.617 238.722 389.653 239.119 389.809 239.456C389.964 239.793 390.226 240.044 390.537 240.154C390.848 240.263 391.183 240.223 391.468 240.041L400.603 234.143L402.515 232.901L410.313 227.864C410.598 227.678 410.809 227.367 410.901 226.997C410.993 226.628 410.958 226.23 410.804 225.891Z" fill="#CED5DD"/>
<path d="M417.223 227.323C417.147 227.156 417.043 227.009 416.918 226.89C416.793 226.77 416.649 226.681 416.495 226.628C416.341 226.575 416.179 226.559 416.02 226.58C415.86 226.602 415.706 226.66 415.565 226.753L392.28 241.793C392.139 241.885 392.015 242.008 391.914 242.156C391.813 242.305 391.738 242.475 391.693 242.658C391.648 242.841 391.633 243.032 391.651 243.221C391.668 243.411 391.717 243.594 391.794 243.761C391.871 243.928 391.975 244.075 392.101 244.195C392.226 244.314 392.37 244.403 392.524 244.456C392.679 244.51 392.84 244.527 393 244.506C393.16 244.486 393.315 244.428 393.456 244.337L416.733 229.296C416.875 229.206 417.001 229.083 417.103 228.935C417.206 228.786 417.282 228.615 417.327 228.432C417.373 228.248 417.387 228.055 417.369 227.865C417.352 227.675 417.302 227.491 417.223 227.323Z" fill="#CED5DD"/>
<path d="M391.917 251.296L385.007 236.296L384.524 235.244C384.448 235.083 384.32 234.964 384.17 234.914C384.019 234.863 383.858 234.885 383.721 234.974L366.348 246.189C366.212 246.28 366.112 246.431 366.069 246.609C366.026 246.788 366.044 246.978 366.12 247.141L366.602 248.182L367.126 249.334L367.617 250.385V250.395L373.512 263.193C373.587 263.353 373.713 263.472 373.862 263.522C374.011 263.573 374.171 263.552 374.307 263.463L391.68 252.248C391.748 252.204 391.809 252.145 391.858 252.073C391.907 252.001 391.944 251.919 391.966 251.831C391.988 251.742 391.995 251.649 391.987 251.558C391.978 251.466 391.954 251.377 391.917 251.296Z" fill="#A1BCE8"/>
<path d="M420.15 246.259C419.995 245.923 419.733 245.672 419.422 245.563C419.111 245.454 418.777 245.496 418.492 245.679L401.618 256.574L392.932 262.191C392.79 262.283 392.665 262.406 392.564 262.555C392.462 262.703 392.387 262.874 392.341 263.057C392.296 263.241 392.281 263.433 392.298 263.622C392.315 263.812 392.364 263.996 392.441 264.164C392.518 264.332 392.623 264.48 392.748 264.6C392.874 264.72 393.018 264.809 393.173 264.863C393.327 264.917 393.49 264.934 393.65 264.914C393.81 264.894 393.966 264.836 394.107 264.745L419.668 248.232C419.809 248.14 419.934 248.016 420.034 247.868C420.135 247.719 420.21 247.548 420.255 247.364C420.3 247.181 420.313 246.989 420.295 246.799C420.277 246.61 420.228 246.426 420.15 246.259Z" fill="#CED5DD"/>
<path d="M426.578 247.691C426.5 247.524 426.395 247.377 426.27 247.258C426.144 247.139 425.999 247.05 425.845 246.997C425.69 246.944 425.528 246.928 425.368 246.949C425.208 246.97 425.053 247.028 424.911 247.121L394.911 266.497C394.769 266.588 394.644 266.711 394.542 266.86C394.441 267.008 394.365 267.179 394.319 267.362C394.274 267.545 394.259 267.737 394.276 267.927C394.294 268.116 394.342 268.3 394.42 268.468C394.497 268.635 394.602 268.783 394.727 268.903C394.853 269.022 394.998 269.111 395.153 269.164C395.307 269.218 395.47 269.234 395.63 269.213C395.79 269.192 395.945 269.133 396.086 269.041L426.087 249.664C426.373 249.479 426.584 249.167 426.676 248.798C426.768 248.428 426.733 248.03 426.578 247.691Z" fill="#CED5DD"/>
<path d="M384.371 278.264C387.244 278.264 389.573 275.507 389.573 272.105C389.573 268.704 387.244 265.947 384.371 265.947C381.498 265.947 379.169 268.704 379.169 272.105C379.169 275.507 381.498 278.264 384.371 278.264Z" fill="#CED5DD"/>
<path d="M387.865 306.731C388.741 306.833 389.608 307.017 390.46 307.28L449.454 245.319L445.64 223.091L473.222 211.89L483.206 250.464C484.012 253.58 483.943 256.922 483.009 259.988C482.074 263.054 480.325 265.678 478.024 267.467L403.023 325.766C403.134 329.777 402.21 333.733 400.376 337.107C398.541 340.482 395.882 343.115 392.752 344.657C389.623 346.199 386.171 346.576 382.856 345.738C379.541 344.901 376.52 342.888 374.194 339.968C371.869 337.048 370.349 333.359 369.838 329.391C369.327 325.424 369.848 321.366 371.332 317.758C372.816 314.15 375.193 311.162 378.146 309.193C381.1 307.223 384.49 306.364 387.865 306.731Z" fill="#F9D7DA"/>
<path d="M490.064 217.44L473.351 179.648C471.631 173.9 468.091 169.168 463.48 166.452C458.869 163.735 453.547 163.246 448.637 165.088C448.45 165.148 448.273 165.218 448.087 165.298C443.111 167.358 439.029 171.67 436.736 177.289C434.443 182.908 434.126 189.375 435.856 195.269L442.564 237.037C442.756 238.232 443.163 239.365 443.759 240.357C444.354 241.349 445.124 242.177 446.014 242.785C446.988 243.459 448.085 243.844 449.211 243.906C450.138 243.976 451.068 243.822 451.943 243.456L455.53 241.973L486.08 229.376C487.051 228.974 487.937 228.329 488.679 227.486C489.421 226.642 490 225.619 490.378 224.487C490.756 223.354 490.924 222.139 490.869 220.923C490.815 219.707 490.541 218.519 490.064 217.44Z" fill="#A1BCE8"/>
<path d="M553.156 363.21H0.845804C0.621483 363.21 0.406349 363.104 0.24773 362.917C0.0891106 362.729 0 362.474 0 362.209C0 361.943 0.0891106 361.688 0.24773 361.5C0.406349 361.313 0.621483 361.207 0.845804 361.207H177H553.156C553.38 361.207 553.595 361.313 553.754 361.5C553.912 361.688 554.002 361.943 554.002 362.209C554.002 362.474 553.912 362.729 553.754 362.917C553.595 363.104 553.38 363.21 553.156 363.21Z" fill="#7F7F7F"/>
<path d="M95.9954 344.684V345.185C95.9984 348.58 96.8335 351.901 98.3994 354.745C99.9653 357.589 102.195 359.834 104.817 361.207C106.698 362.203 108.736 362.715 110.797 362.709H247.394V344.684H95.9954Z" fill="#7F7F7F"/>
<path d="M342.767 225.891C340.599 220.594 337.262 216.089 333.108 212.854C331.225 211.378 329.193 210.187 327.061 209.309C324.154 208.107 321.097 207.494 318.019 207.496H186.919C179.631 207.506 172.645 210.938 167.491 217.039C162.338 223.141 159.439 231.413 159.431 240.041V330.165C159.428 331.43 159.491 332.694 159.617 333.95C159.803 335.828 160.125 337.684 160.581 339.497C161.033 341.283 161.616 343.019 162.323 344.684C164.6 350.101 168.109 354.658 172.454 357.842C176.799 361.027 181.809 362.712 186.919 362.709H318.019C321.629 362.711 325.204 361.87 328.54 360.235C331.876 358.6 334.907 356.203 337.459 353.181C340.012 350.158 342.037 346.57 343.418 342.621C344.799 338.672 345.509 334.439 345.508 330.165V240.041C345.514 235.139 344.576 230.3 342.767 225.891Z" fill="#7F7F7F"/>
<path d="M259.658 293.114C263.395 293.114 266.425 289.527 266.425 285.103C266.425 280.678 263.395 277.092 259.658 277.092C255.921 277.092 252.892 280.678 252.892 285.103C252.892 289.527 255.921 293.114 259.658 293.114Z" fill="white"/>
</svg>
